G04 EAGLE Gerber RS-274X export*
G75*
%MOMM*%
%FSLAX34Y34*%
%LPD*%
%INBottom Silk screen*%
%IPPOS*%
%AMOC8*
5,1,8,0,0,1.08239X$1,22.5*%
G01*
%ADD10C,0.254000*%


D10*
X112522Y76200D02*
X112544Y77958D01*
X112608Y79715D01*
X112716Y81469D01*
X112867Y83221D01*
X113061Y84968D01*
X113297Y86710D01*
X113577Y88446D01*
X113898Y90174D01*
X114262Y91894D01*
X114669Y93604D01*
X115117Y95304D01*
X115606Y96993D01*
X116137Y98668D01*
X116709Y100331D01*
X117322Y101979D01*
X117974Y103611D01*
X118667Y105227D01*
X119399Y106825D01*
X120170Y108405D01*
X120980Y109965D01*
X121827Y111505D01*
X122713Y113024D01*
X123635Y114521D01*
X124593Y115994D01*
X125588Y117444D01*
X126618Y118869D01*
X127682Y120268D01*
X128781Y121640D01*
X129913Y122985D01*
X131077Y124302D01*
X132274Y125590D01*
X133501Y126849D01*
X134760Y128076D01*
X136048Y129273D01*
X137365Y130437D01*
X138710Y131569D01*
X140082Y132668D01*
X141481Y133732D01*
X142906Y134762D01*
X144356Y135757D01*
X145829Y136715D01*
X147326Y137637D01*
X148845Y138523D01*
X150385Y139370D01*
X151945Y140180D01*
X153525Y140951D01*
X155123Y141683D01*
X156739Y142376D01*
X158371Y143028D01*
X160019Y143641D01*
X161682Y144213D01*
X163357Y144744D01*
X165046Y145233D01*
X166746Y145681D01*
X168456Y146088D01*
X170176Y146452D01*
X171904Y146773D01*
X173640Y147053D01*
X175382Y147289D01*
X177129Y147483D01*
X178881Y147634D01*
X180635Y147742D01*
X182392Y147806D01*
X184150Y147828D01*
X185908Y147806D01*
X187665Y147742D01*
X189419Y147634D01*
X191171Y147483D01*
X192918Y147289D01*
X194660Y147053D01*
X196396Y146773D01*
X198124Y146452D01*
X199844Y146088D01*
X201554Y145681D01*
X203254Y145233D01*
X204943Y144744D01*
X206618Y144213D01*
X208281Y143641D01*
X209929Y143028D01*
X211561Y142376D01*
X213177Y141683D01*
X214775Y140951D01*
X216355Y140180D01*
X217915Y139370D01*
X219455Y138523D01*
X220974Y137637D01*
X222471Y136715D01*
X223944Y135757D01*
X225394Y134762D01*
X226819Y133732D01*
X228218Y132668D01*
X229590Y131569D01*
X230935Y130437D01*
X232252Y129273D01*
X233540Y128076D01*
X234799Y126849D01*
X236026Y125590D01*
X237223Y124302D01*
X238387Y122985D01*
X239519Y121640D01*
X240618Y120268D01*
X241682Y118869D01*
X242712Y117444D01*
X243707Y115994D01*
X244665Y114521D01*
X245587Y113024D01*
X246473Y111505D01*
X247320Y109965D01*
X248130Y108405D01*
X248901Y106825D01*
X249633Y105227D01*
X250326Y103611D01*
X250978Y101979D01*
X251591Y100331D01*
X252163Y98668D01*
X252694Y96993D01*
X253183Y95304D01*
X253631Y93604D01*
X254038Y91894D01*
X254402Y90174D01*
X254723Y88446D01*
X255003Y86710D01*
X255239Y84968D01*
X255433Y83221D01*
X255584Y81469D01*
X255692Y79715D01*
X255756Y77958D01*
X255778Y76200D01*
X255756Y74442D01*
X255692Y72685D01*
X255584Y70931D01*
X255433Y69179D01*
X255239Y67432D01*
X255003Y65690D01*
X254723Y63954D01*
X254402Y62226D01*
X254038Y60506D01*
X253631Y58796D01*
X253183Y57096D01*
X252694Y55407D01*
X252163Y53732D01*
X251591Y52069D01*
X250978Y50421D01*
X250326Y48789D01*
X249633Y47173D01*
X248901Y45575D01*
X248130Y43995D01*
X247320Y42435D01*
X246473Y40895D01*
X245587Y39376D01*
X244665Y37879D01*
X243707Y36406D01*
X242712Y34956D01*
X241682Y33531D01*
X240618Y32132D01*
X239519Y30760D01*
X238387Y29415D01*
X237223Y28098D01*
X236026Y26810D01*
X234799Y25551D01*
X233540Y24324D01*
X232252Y23127D01*
X230935Y21963D01*
X229590Y20831D01*
X228218Y19732D01*
X226819Y18668D01*
X225394Y17638D01*
X223944Y16643D01*
X222471Y15685D01*
X220974Y14763D01*
X219455Y13877D01*
X217915Y13030D01*
X216355Y12220D01*
X214775Y11449D01*
X213177Y10717D01*
X211561Y10024D01*
X209929Y9372D01*
X208281Y8759D01*
X206618Y8187D01*
X204943Y7656D01*
X203254Y7167D01*
X201554Y6719D01*
X199844Y6312D01*
X198124Y5948D01*
X196396Y5627D01*
X194660Y5347D01*
X192918Y5111D01*
X191171Y4917D01*
X189419Y4766D01*
X187665Y4658D01*
X185908Y4594D01*
X184150Y4572D01*
X182392Y4594D01*
X180635Y4658D01*
X178881Y4766D01*
X177129Y4917D01*
X175382Y5111D01*
X173640Y5347D01*
X171904Y5627D01*
X170176Y5948D01*
X168456Y6312D01*
X166746Y6719D01*
X165046Y7167D01*
X163357Y7656D01*
X161682Y8187D01*
X160019Y8759D01*
X158371Y9372D01*
X156739Y10024D01*
X155123Y10717D01*
X153525Y11449D01*
X151945Y12220D01*
X150385Y13030D01*
X148845Y13877D01*
X147326Y14763D01*
X145829Y15685D01*
X144356Y16643D01*
X142906Y17638D01*
X141481Y18668D01*
X140082Y19732D01*
X138710Y20831D01*
X137365Y21963D01*
X136048Y23127D01*
X134760Y24324D01*
X133501Y25551D01*
X132274Y26810D01*
X131077Y28098D01*
X129913Y29415D01*
X128781Y30760D01*
X127682Y32132D01*
X126618Y33531D01*
X125588Y34956D01*
X124593Y36406D01*
X123635Y37879D01*
X122713Y39376D01*
X121827Y40895D01*
X120980Y42435D01*
X120170Y43995D01*
X119399Y45575D01*
X118667Y47173D01*
X117974Y48789D01*
X117322Y50421D01*
X116709Y52069D01*
X116137Y53732D01*
X115606Y55407D01*
X115117Y57096D01*
X114669Y58796D01*
X114262Y60506D01*
X113898Y62226D01*
X113577Y63954D01*
X113297Y65690D01*
X113061Y67432D01*
X112867Y69179D01*
X112716Y70931D01*
X112608Y72685D01*
X112544Y74442D01*
X112522Y76200D01*
M02*
