G04 EAGLE Gerber RS-274X export*
G75*
%MOMM*%
%FSLAX34Y34*%
%LPD*%
%INTop Silkscreen *%
%IPPOS*%
%AMOC8*
5,1,8,0,0,1.08239X$1,22.5*%
G01*
%ADD10C,0.177800*%
%ADD11C,0.127000*%


D10*
X18429Y204653D02*
X20503Y204653D01*
X20503Y197739D01*
X16355Y197739D01*
X16252Y197741D01*
X16148Y197747D01*
X16045Y197756D01*
X15943Y197770D01*
X15841Y197787D01*
X15740Y197808D01*
X15639Y197833D01*
X15540Y197862D01*
X15441Y197894D01*
X15344Y197930D01*
X15249Y197970D01*
X15155Y198013D01*
X15063Y198060D01*
X14972Y198110D01*
X14883Y198163D01*
X14797Y198220D01*
X14712Y198279D01*
X14630Y198342D01*
X14551Y198408D01*
X14474Y198477D01*
X14399Y198549D01*
X14327Y198624D01*
X14258Y198701D01*
X14192Y198780D01*
X14129Y198862D01*
X14070Y198947D01*
X14013Y199033D01*
X13960Y199122D01*
X13910Y199213D01*
X13863Y199305D01*
X13820Y199399D01*
X13780Y199494D01*
X13744Y199591D01*
X13712Y199690D01*
X13683Y199789D01*
X13658Y199890D01*
X13637Y199991D01*
X13620Y200093D01*
X13606Y200195D01*
X13597Y200298D01*
X13591Y200402D01*
X13589Y200505D01*
X13589Y207419D01*
X13591Y207522D01*
X13597Y207626D01*
X13606Y207729D01*
X13620Y207831D01*
X13637Y207933D01*
X13658Y208034D01*
X13683Y208135D01*
X13712Y208234D01*
X13744Y208333D01*
X13780Y208430D01*
X13820Y208525D01*
X13863Y208619D01*
X13910Y208711D01*
X13960Y208802D01*
X14013Y208891D01*
X14070Y208977D01*
X14129Y209061D01*
X14192Y209144D01*
X14258Y209223D01*
X14327Y209300D01*
X14399Y209375D01*
X14474Y209447D01*
X14551Y209516D01*
X14630Y209582D01*
X14712Y209645D01*
X14797Y209704D01*
X14883Y209761D01*
X14972Y209814D01*
X15063Y209864D01*
X15155Y209911D01*
X15249Y209954D01*
X15344Y209994D01*
X15441Y210030D01*
X15540Y210062D01*
X15639Y210091D01*
X15739Y210116D01*
X15841Y210137D01*
X15943Y210154D01*
X16045Y210168D01*
X16148Y210177D01*
X16252Y210183D01*
X16355Y210185D01*
X20503Y210185D01*
X27244Y210185D02*
X27244Y197739D01*
X34158Y197739D02*
X27244Y210185D01*
X34158Y210185D02*
X34158Y197739D01*
X40899Y197739D02*
X40899Y210185D01*
X44356Y210185D01*
X44472Y210183D01*
X44587Y210177D01*
X44702Y210168D01*
X44817Y210154D01*
X44931Y210137D01*
X45045Y210116D01*
X45157Y210091D01*
X45269Y210062D01*
X45380Y210030D01*
X45490Y209994D01*
X45598Y209954D01*
X45706Y209911D01*
X45811Y209864D01*
X45915Y209813D01*
X46017Y209760D01*
X46118Y209702D01*
X46216Y209642D01*
X46312Y209578D01*
X46407Y209511D01*
X46498Y209441D01*
X46588Y209368D01*
X46675Y209292D01*
X46759Y209213D01*
X46841Y209131D01*
X46920Y209047D01*
X46996Y208960D01*
X47069Y208870D01*
X47139Y208779D01*
X47206Y208684D01*
X47270Y208588D01*
X47330Y208490D01*
X47388Y208389D01*
X47441Y208287D01*
X47492Y208183D01*
X47539Y208078D01*
X47582Y207970D01*
X47622Y207862D01*
X47658Y207752D01*
X47690Y207641D01*
X47719Y207529D01*
X47744Y207417D01*
X47765Y207303D01*
X47782Y207189D01*
X47796Y207074D01*
X47805Y206959D01*
X47811Y206843D01*
X47813Y206728D01*
X47813Y201196D01*
X47811Y201080D01*
X47805Y200965D01*
X47796Y200850D01*
X47782Y200735D01*
X47765Y200621D01*
X47744Y200507D01*
X47719Y200395D01*
X47690Y200283D01*
X47658Y200172D01*
X47622Y200062D01*
X47582Y199954D01*
X47539Y199846D01*
X47492Y199741D01*
X47441Y199637D01*
X47388Y199535D01*
X47330Y199434D01*
X47270Y199336D01*
X47206Y199240D01*
X47139Y199145D01*
X47069Y199054D01*
X46996Y198964D01*
X46920Y198877D01*
X46841Y198793D01*
X46759Y198711D01*
X46675Y198632D01*
X46588Y198556D01*
X46498Y198483D01*
X46407Y198413D01*
X46312Y198346D01*
X46216Y198282D01*
X46118Y198222D01*
X46017Y198164D01*
X45915Y198111D01*
X45811Y198060D01*
X45706Y198013D01*
X45598Y197970D01*
X45490Y197930D01*
X45380Y197894D01*
X45269Y197862D01*
X45157Y197833D01*
X45045Y197808D01*
X44931Y197787D01*
X44817Y197770D01*
X44702Y197756D01*
X44587Y197747D01*
X44472Y197741D01*
X44356Y197739D01*
X40899Y197739D01*
X64389Y202579D02*
X72686Y202579D01*
X68538Y198430D02*
X68538Y206728D01*
X78735Y197739D02*
X82884Y197739D01*
X82987Y197741D01*
X83091Y197747D01*
X83194Y197756D01*
X83296Y197770D01*
X83398Y197787D01*
X83499Y197808D01*
X83600Y197833D01*
X83699Y197862D01*
X83798Y197894D01*
X83895Y197930D01*
X83990Y197970D01*
X84084Y198013D01*
X84176Y198060D01*
X84267Y198110D01*
X84356Y198163D01*
X84442Y198220D01*
X84526Y198279D01*
X84609Y198342D01*
X84688Y198408D01*
X84765Y198477D01*
X84840Y198549D01*
X84912Y198624D01*
X84981Y198701D01*
X85047Y198780D01*
X85110Y198862D01*
X85169Y198947D01*
X85226Y199033D01*
X85279Y199122D01*
X85329Y199213D01*
X85376Y199305D01*
X85419Y199399D01*
X85459Y199494D01*
X85495Y199591D01*
X85527Y199690D01*
X85556Y199789D01*
X85581Y199889D01*
X85602Y199991D01*
X85619Y200093D01*
X85633Y200195D01*
X85642Y200298D01*
X85648Y200402D01*
X85650Y200505D01*
X85650Y201888D01*
X85648Y201991D01*
X85642Y202095D01*
X85633Y202198D01*
X85619Y202300D01*
X85602Y202402D01*
X85581Y202503D01*
X85556Y202604D01*
X85527Y202703D01*
X85495Y202802D01*
X85459Y202899D01*
X85419Y202994D01*
X85376Y203088D01*
X85329Y203180D01*
X85279Y203271D01*
X85226Y203360D01*
X85169Y203446D01*
X85110Y203531D01*
X85047Y203613D01*
X84981Y203692D01*
X84912Y203769D01*
X84840Y203844D01*
X84765Y203916D01*
X84688Y203985D01*
X84609Y204051D01*
X84527Y204114D01*
X84442Y204173D01*
X84356Y204230D01*
X84267Y204283D01*
X84176Y204333D01*
X84084Y204380D01*
X83990Y204423D01*
X83895Y204463D01*
X83798Y204499D01*
X83699Y204531D01*
X83600Y204560D01*
X83499Y204585D01*
X83398Y204606D01*
X83296Y204623D01*
X83194Y204637D01*
X83091Y204646D01*
X82987Y204652D01*
X82884Y204654D01*
X82884Y204653D02*
X78735Y204653D01*
X78735Y210185D01*
X85650Y210185D01*
X90846Y210185D02*
X94994Y197739D01*
X99143Y210185D01*
X23396Y26035D02*
X23396Y13589D01*
X19939Y26035D02*
X26853Y26035D01*
X32314Y26035D02*
X32314Y13589D01*
X32314Y26035D02*
X35771Y26035D01*
X35887Y26033D01*
X36002Y26027D01*
X36117Y26018D01*
X36232Y26004D01*
X36346Y25987D01*
X36460Y25966D01*
X36572Y25941D01*
X36684Y25912D01*
X36795Y25880D01*
X36905Y25844D01*
X37013Y25804D01*
X37121Y25761D01*
X37226Y25714D01*
X37330Y25663D01*
X37432Y25610D01*
X37533Y25552D01*
X37631Y25492D01*
X37727Y25428D01*
X37822Y25361D01*
X37913Y25291D01*
X38003Y25218D01*
X38090Y25142D01*
X38174Y25063D01*
X38256Y24981D01*
X38335Y24897D01*
X38411Y24810D01*
X38484Y24720D01*
X38554Y24629D01*
X38621Y24534D01*
X38685Y24438D01*
X38745Y24340D01*
X38803Y24239D01*
X38856Y24137D01*
X38907Y24033D01*
X38954Y23928D01*
X38997Y23820D01*
X39037Y23712D01*
X39073Y23602D01*
X39105Y23491D01*
X39134Y23379D01*
X39159Y23267D01*
X39180Y23153D01*
X39197Y23039D01*
X39211Y22924D01*
X39220Y22809D01*
X39226Y22693D01*
X39228Y22578D01*
X39228Y17046D01*
X39226Y16930D01*
X39220Y16815D01*
X39211Y16700D01*
X39197Y16585D01*
X39180Y16471D01*
X39159Y16357D01*
X39134Y16245D01*
X39105Y16133D01*
X39073Y16022D01*
X39037Y15912D01*
X38997Y15804D01*
X38954Y15696D01*
X38907Y15591D01*
X38856Y15487D01*
X38803Y15385D01*
X38745Y15284D01*
X38685Y15186D01*
X38621Y15090D01*
X38554Y14995D01*
X38484Y14904D01*
X38411Y14814D01*
X38335Y14727D01*
X38256Y14643D01*
X38174Y14561D01*
X38090Y14482D01*
X38003Y14406D01*
X37913Y14333D01*
X37822Y14263D01*
X37727Y14196D01*
X37631Y14132D01*
X37533Y14072D01*
X37432Y14014D01*
X37330Y13961D01*
X37226Y13910D01*
X37121Y13863D01*
X37013Y13820D01*
X36905Y13780D01*
X36795Y13744D01*
X36684Y13712D01*
X36572Y13683D01*
X36460Y13658D01*
X36346Y13637D01*
X36232Y13620D01*
X36117Y13606D01*
X36002Y13597D01*
X35887Y13591D01*
X35771Y13589D01*
X32314Y13589D01*
X46075Y13589D02*
X46075Y26035D01*
X49532Y26035D01*
X49649Y26033D01*
X49765Y26027D01*
X49882Y26017D01*
X49998Y26003D01*
X50113Y25986D01*
X50228Y25964D01*
X50342Y25939D01*
X50455Y25910D01*
X50567Y25876D01*
X50678Y25840D01*
X50787Y25799D01*
X50895Y25755D01*
X51002Y25707D01*
X51107Y25656D01*
X51210Y25601D01*
X51311Y25542D01*
X51410Y25480D01*
X51507Y25415D01*
X51602Y25347D01*
X51694Y25276D01*
X51784Y25201D01*
X51871Y25123D01*
X51956Y25043D01*
X52038Y24960D01*
X52117Y24874D01*
X52193Y24785D01*
X52266Y24694D01*
X52336Y24601D01*
X52402Y24505D01*
X52466Y24407D01*
X52526Y24306D01*
X52583Y24204D01*
X52636Y24100D01*
X52685Y23995D01*
X52731Y23887D01*
X52774Y23779D01*
X52813Y23668D01*
X52847Y23557D01*
X52879Y23445D01*
X52906Y23331D01*
X52930Y23217D01*
X52949Y23101D01*
X52965Y22986D01*
X52977Y22870D01*
X52985Y22753D01*
X52989Y22636D01*
X52989Y22520D01*
X52985Y22403D01*
X52977Y22286D01*
X52965Y22170D01*
X52949Y22055D01*
X52930Y21939D01*
X52906Y21825D01*
X52879Y21711D01*
X52847Y21599D01*
X52813Y21488D01*
X52774Y21377D01*
X52731Y21269D01*
X52685Y21161D01*
X52636Y21056D01*
X52583Y20952D01*
X52526Y20849D01*
X52466Y20749D01*
X52402Y20651D01*
X52336Y20555D01*
X52266Y20462D01*
X52193Y20371D01*
X52117Y20282D01*
X52038Y20196D01*
X51956Y20113D01*
X51871Y20033D01*
X51784Y19955D01*
X51694Y19880D01*
X51602Y19809D01*
X51507Y19741D01*
X51410Y19676D01*
X51311Y19614D01*
X51210Y19555D01*
X51107Y19500D01*
X51002Y19449D01*
X50895Y19401D01*
X50787Y19357D01*
X50678Y19316D01*
X50567Y19280D01*
X50455Y19246D01*
X50342Y19217D01*
X50228Y19192D01*
X50113Y19170D01*
X49998Y19153D01*
X49882Y19139D01*
X49765Y19129D01*
X49649Y19123D01*
X49532Y19121D01*
X46075Y19121D01*
X50223Y19121D02*
X52989Y13589D01*
X66268Y13589D02*
X66268Y26035D01*
X69725Y26035D01*
X69842Y26033D01*
X69958Y26027D01*
X70075Y26017D01*
X70191Y26003D01*
X70306Y25986D01*
X70421Y25964D01*
X70535Y25939D01*
X70648Y25910D01*
X70760Y25876D01*
X70871Y25840D01*
X70980Y25799D01*
X71088Y25755D01*
X71195Y25707D01*
X71300Y25656D01*
X71403Y25601D01*
X71504Y25542D01*
X71603Y25480D01*
X71700Y25415D01*
X71795Y25347D01*
X71887Y25276D01*
X71977Y25201D01*
X72064Y25123D01*
X72149Y25043D01*
X72231Y24960D01*
X72310Y24874D01*
X72386Y24785D01*
X72459Y24694D01*
X72529Y24601D01*
X72595Y24505D01*
X72659Y24407D01*
X72719Y24306D01*
X72776Y24204D01*
X72829Y24100D01*
X72878Y23995D01*
X72924Y23887D01*
X72967Y23779D01*
X73006Y23668D01*
X73040Y23557D01*
X73072Y23445D01*
X73099Y23331D01*
X73123Y23217D01*
X73142Y23101D01*
X73158Y22986D01*
X73170Y22870D01*
X73178Y22753D01*
X73182Y22636D01*
X73182Y22520D01*
X73178Y22403D01*
X73170Y22286D01*
X73158Y22170D01*
X73142Y22055D01*
X73123Y21939D01*
X73099Y21825D01*
X73072Y21711D01*
X73040Y21599D01*
X73006Y21488D01*
X72967Y21377D01*
X72924Y21269D01*
X72878Y21161D01*
X72829Y21056D01*
X72776Y20952D01*
X72719Y20849D01*
X72659Y20749D01*
X72595Y20651D01*
X72529Y20555D01*
X72459Y20462D01*
X72386Y20371D01*
X72310Y20282D01*
X72231Y20196D01*
X72149Y20113D01*
X72064Y20033D01*
X71977Y19955D01*
X71887Y19880D01*
X71795Y19809D01*
X71700Y19741D01*
X71603Y19676D01*
X71504Y19614D01*
X71403Y19555D01*
X71300Y19500D01*
X71195Y19449D01*
X71088Y19401D01*
X70980Y19357D01*
X70871Y19316D01*
X70760Y19280D01*
X70648Y19246D01*
X70535Y19217D01*
X70421Y19192D01*
X70306Y19170D01*
X70191Y19153D01*
X70075Y19139D01*
X69958Y19129D01*
X69842Y19123D01*
X69725Y19121D01*
X66268Y19121D01*
X78664Y21886D02*
X78664Y15663D01*
X78665Y15663D02*
X78667Y15575D01*
X78672Y15487D01*
X78682Y15400D01*
X78695Y15312D01*
X78712Y15226D01*
X78732Y15140D01*
X78756Y15056D01*
X78783Y14972D01*
X78815Y14890D01*
X78849Y14809D01*
X78887Y14729D01*
X78928Y14652D01*
X78973Y14576D01*
X79021Y14502D01*
X79072Y14430D01*
X79125Y14360D01*
X79182Y14293D01*
X79242Y14228D01*
X79304Y14166D01*
X79369Y14106D01*
X79436Y14049D01*
X79506Y13996D01*
X79578Y13945D01*
X79652Y13897D01*
X79728Y13852D01*
X79805Y13811D01*
X79885Y13773D01*
X79966Y13739D01*
X80048Y13707D01*
X80132Y13680D01*
X80216Y13656D01*
X80302Y13636D01*
X80388Y13619D01*
X80476Y13606D01*
X80563Y13596D01*
X80651Y13591D01*
X80739Y13589D01*
X84196Y13589D01*
X84196Y21886D01*
X90280Y26035D02*
X90280Y15663D01*
X90281Y15663D02*
X90283Y15575D01*
X90288Y15487D01*
X90298Y15400D01*
X90311Y15312D01*
X90328Y15226D01*
X90348Y15140D01*
X90372Y15056D01*
X90399Y14972D01*
X90431Y14890D01*
X90465Y14809D01*
X90503Y14729D01*
X90544Y14652D01*
X90589Y14576D01*
X90637Y14502D01*
X90688Y14430D01*
X90741Y14360D01*
X90798Y14293D01*
X90858Y14228D01*
X90920Y14166D01*
X90985Y14106D01*
X91052Y14049D01*
X91122Y13996D01*
X91194Y13945D01*
X91268Y13897D01*
X91344Y13852D01*
X91421Y13811D01*
X91501Y13773D01*
X91582Y13739D01*
X91664Y13707D01*
X91748Y13680D01*
X91832Y13656D01*
X91918Y13636D01*
X92004Y13619D01*
X92092Y13606D01*
X92179Y13596D01*
X92267Y13591D01*
X92355Y13589D01*
X98050Y18429D02*
X101508Y17046D01*
X98050Y18429D02*
X97974Y18462D01*
X97899Y18498D01*
X97826Y18537D01*
X97755Y18580D01*
X97686Y18626D01*
X97619Y18675D01*
X97555Y18728D01*
X97493Y18783D01*
X97434Y18841D01*
X97377Y18901D01*
X97323Y18965D01*
X97273Y19030D01*
X97225Y19098D01*
X97181Y19168D01*
X97139Y19240D01*
X97102Y19314D01*
X97067Y19389D01*
X97036Y19466D01*
X97009Y19545D01*
X96986Y19624D01*
X96966Y19705D01*
X96950Y19786D01*
X96937Y19868D01*
X96929Y19950D01*
X96924Y20033D01*
X96923Y20116D01*
X96926Y20199D01*
X96933Y20282D01*
X96943Y20364D01*
X96958Y20446D01*
X96976Y20527D01*
X96998Y20607D01*
X97023Y20685D01*
X97053Y20763D01*
X97085Y20839D01*
X97121Y20914D01*
X97161Y20987D01*
X97204Y21058D01*
X97250Y21127D01*
X97300Y21193D01*
X97352Y21258D01*
X97407Y21319D01*
X97465Y21379D01*
X97526Y21435D01*
X97589Y21489D01*
X97655Y21539D01*
X97723Y21587D01*
X97793Y21631D01*
X97865Y21672D01*
X97939Y21710D01*
X98014Y21744D01*
X98091Y21775D01*
X98170Y21802D01*
X98249Y21825D01*
X98330Y21845D01*
X98411Y21861D01*
X98493Y21873D01*
X98576Y21882D01*
X98659Y21886D01*
X98742Y21887D01*
X98931Y21882D01*
X99120Y21873D01*
X99308Y21859D01*
X99496Y21840D01*
X99683Y21817D01*
X99870Y21789D01*
X100056Y21757D01*
X100241Y21721D01*
X100426Y21680D01*
X100609Y21635D01*
X100791Y21585D01*
X100972Y21531D01*
X101151Y21472D01*
X101329Y21409D01*
X101506Y21342D01*
X101681Y21271D01*
X101854Y21196D01*
X101508Y17047D02*
X101584Y17014D01*
X101659Y16978D01*
X101732Y16939D01*
X101803Y16896D01*
X101872Y16850D01*
X101939Y16801D01*
X102003Y16748D01*
X102065Y16693D01*
X102124Y16635D01*
X102181Y16575D01*
X102235Y16511D01*
X102285Y16446D01*
X102333Y16378D01*
X102377Y16308D01*
X102419Y16236D01*
X102456Y16162D01*
X102491Y16087D01*
X102522Y16010D01*
X102549Y15931D01*
X102572Y15852D01*
X102592Y15771D01*
X102608Y15690D01*
X102621Y15608D01*
X102629Y15526D01*
X102634Y15443D01*
X102635Y15360D01*
X102632Y15277D01*
X102625Y15194D01*
X102615Y15112D01*
X102600Y15030D01*
X102582Y14949D01*
X102560Y14869D01*
X102535Y14791D01*
X102505Y14713D01*
X102473Y14637D01*
X102437Y14562D01*
X102397Y14489D01*
X102354Y14418D01*
X102308Y14349D01*
X102259Y14283D01*
X102206Y14218D01*
X102151Y14157D01*
X102093Y14097D01*
X102032Y14041D01*
X101969Y13987D01*
X101903Y13937D01*
X101835Y13889D01*
X101765Y13845D01*
X101693Y13804D01*
X101619Y13766D01*
X101544Y13732D01*
X101467Y13701D01*
X101388Y13674D01*
X101309Y13651D01*
X101228Y13631D01*
X101147Y13615D01*
X101065Y13603D01*
X100982Y13594D01*
X100899Y13590D01*
X100816Y13589D01*
X100817Y13589D02*
X100539Y13596D01*
X100262Y13610D01*
X99986Y13631D01*
X99710Y13657D01*
X99434Y13691D01*
X99160Y13731D01*
X98886Y13777D01*
X98614Y13830D01*
X98343Y13889D01*
X98074Y13955D01*
X97806Y14027D01*
X97540Y14105D01*
X97276Y14190D01*
X97014Y14281D01*
X110182Y13589D02*
X113639Y13589D01*
X110182Y13589D02*
X110094Y13591D01*
X110006Y13596D01*
X109919Y13606D01*
X109831Y13619D01*
X109745Y13636D01*
X109659Y13656D01*
X109575Y13680D01*
X109491Y13707D01*
X109409Y13739D01*
X109328Y13773D01*
X109248Y13811D01*
X109171Y13852D01*
X109095Y13897D01*
X109021Y13945D01*
X108949Y13996D01*
X108879Y14049D01*
X108812Y14106D01*
X108747Y14166D01*
X108685Y14228D01*
X108625Y14293D01*
X108568Y14360D01*
X108515Y14430D01*
X108464Y14502D01*
X108416Y14576D01*
X108371Y14652D01*
X108330Y14729D01*
X108292Y14809D01*
X108258Y14890D01*
X108226Y14972D01*
X108199Y15056D01*
X108175Y15140D01*
X108155Y15226D01*
X108138Y15312D01*
X108125Y15400D01*
X108115Y15487D01*
X108110Y15575D01*
X108108Y15663D01*
X108108Y19121D01*
X108110Y19224D01*
X108116Y19328D01*
X108125Y19431D01*
X108139Y19533D01*
X108156Y19635D01*
X108177Y19736D01*
X108202Y19837D01*
X108231Y19936D01*
X108263Y20035D01*
X108299Y20132D01*
X108339Y20227D01*
X108382Y20321D01*
X108429Y20413D01*
X108479Y20504D01*
X108532Y20593D01*
X108589Y20679D01*
X108648Y20764D01*
X108711Y20846D01*
X108777Y20925D01*
X108846Y21002D01*
X108918Y21077D01*
X108993Y21149D01*
X109070Y21218D01*
X109149Y21284D01*
X109231Y21347D01*
X109316Y21406D01*
X109402Y21463D01*
X109491Y21516D01*
X109582Y21566D01*
X109674Y21613D01*
X109768Y21656D01*
X109863Y21696D01*
X109960Y21732D01*
X110059Y21764D01*
X110158Y21793D01*
X110259Y21818D01*
X110360Y21839D01*
X110462Y21856D01*
X110564Y21870D01*
X110667Y21879D01*
X110771Y21885D01*
X110874Y21887D01*
X110977Y21885D01*
X111081Y21879D01*
X111184Y21870D01*
X111286Y21856D01*
X111388Y21839D01*
X111489Y21818D01*
X111590Y21793D01*
X111689Y21764D01*
X111788Y21732D01*
X111885Y21696D01*
X111980Y21656D01*
X112074Y21613D01*
X112166Y21566D01*
X112257Y21516D01*
X112346Y21463D01*
X112432Y21406D01*
X112517Y21347D01*
X112599Y21284D01*
X112678Y21218D01*
X112755Y21149D01*
X112830Y21077D01*
X112902Y21002D01*
X112971Y20925D01*
X113037Y20846D01*
X113100Y20764D01*
X113159Y20679D01*
X113216Y20593D01*
X113269Y20504D01*
X113319Y20413D01*
X113366Y20321D01*
X113409Y20227D01*
X113449Y20132D01*
X113485Y20035D01*
X113517Y19936D01*
X113546Y19837D01*
X113571Y19736D01*
X113592Y19635D01*
X113609Y19533D01*
X113623Y19431D01*
X113632Y19328D01*
X113638Y19224D01*
X113640Y19121D01*
X113639Y19121D02*
X113639Y17738D01*
X108108Y17738D01*
X131459Y20503D02*
X133533Y20503D01*
X133533Y13589D01*
X129385Y13589D01*
X129282Y13591D01*
X129178Y13597D01*
X129075Y13606D01*
X128973Y13620D01*
X128871Y13637D01*
X128770Y13658D01*
X128669Y13683D01*
X128570Y13712D01*
X128471Y13744D01*
X128374Y13780D01*
X128279Y13820D01*
X128185Y13863D01*
X128093Y13910D01*
X128002Y13960D01*
X127913Y14013D01*
X127827Y14070D01*
X127742Y14129D01*
X127660Y14192D01*
X127581Y14258D01*
X127504Y14327D01*
X127429Y14399D01*
X127357Y14474D01*
X127288Y14551D01*
X127222Y14630D01*
X127159Y14712D01*
X127100Y14797D01*
X127043Y14883D01*
X126990Y14972D01*
X126940Y15063D01*
X126893Y15155D01*
X126850Y15249D01*
X126810Y15344D01*
X126774Y15441D01*
X126742Y15540D01*
X126713Y15639D01*
X126688Y15740D01*
X126667Y15841D01*
X126650Y15943D01*
X126636Y16045D01*
X126627Y16148D01*
X126621Y16252D01*
X126619Y16355D01*
X126619Y23269D01*
X126621Y23372D01*
X126627Y23476D01*
X126636Y23579D01*
X126650Y23681D01*
X126667Y23783D01*
X126688Y23884D01*
X126713Y23985D01*
X126742Y24084D01*
X126774Y24183D01*
X126810Y24280D01*
X126850Y24375D01*
X126893Y24469D01*
X126940Y24561D01*
X126990Y24652D01*
X127043Y24741D01*
X127100Y24827D01*
X127159Y24911D01*
X127222Y24994D01*
X127288Y25073D01*
X127357Y25150D01*
X127429Y25225D01*
X127504Y25297D01*
X127581Y25366D01*
X127660Y25432D01*
X127742Y25495D01*
X127827Y25554D01*
X127913Y25611D01*
X128002Y25664D01*
X128093Y25714D01*
X128185Y25761D01*
X128279Y25804D01*
X128374Y25844D01*
X128471Y25880D01*
X128570Y25912D01*
X128669Y25941D01*
X128769Y25966D01*
X128871Y25987D01*
X128973Y26004D01*
X129075Y26018D01*
X129178Y26027D01*
X129282Y26033D01*
X129385Y26035D01*
X133533Y26035D01*
X141759Y13589D02*
X145217Y13589D01*
X141759Y13589D02*
X141671Y13591D01*
X141583Y13596D01*
X141496Y13606D01*
X141408Y13619D01*
X141322Y13636D01*
X141236Y13656D01*
X141152Y13680D01*
X141068Y13707D01*
X140986Y13739D01*
X140905Y13773D01*
X140825Y13811D01*
X140748Y13852D01*
X140672Y13897D01*
X140598Y13945D01*
X140526Y13996D01*
X140456Y14049D01*
X140389Y14106D01*
X140324Y14166D01*
X140262Y14228D01*
X140202Y14293D01*
X140145Y14360D01*
X140092Y14430D01*
X140041Y14502D01*
X139993Y14576D01*
X139948Y14652D01*
X139907Y14729D01*
X139869Y14809D01*
X139835Y14890D01*
X139803Y14972D01*
X139776Y15056D01*
X139752Y15140D01*
X139732Y15226D01*
X139715Y15312D01*
X139702Y15400D01*
X139692Y15487D01*
X139687Y15575D01*
X139685Y15663D01*
X139685Y19121D01*
X139687Y19224D01*
X139693Y19328D01*
X139702Y19431D01*
X139716Y19533D01*
X139733Y19635D01*
X139754Y19736D01*
X139779Y19837D01*
X139808Y19936D01*
X139840Y20035D01*
X139876Y20132D01*
X139916Y20227D01*
X139959Y20321D01*
X140006Y20413D01*
X140056Y20504D01*
X140109Y20593D01*
X140166Y20679D01*
X140225Y20764D01*
X140288Y20846D01*
X140354Y20925D01*
X140423Y21002D01*
X140495Y21077D01*
X140570Y21149D01*
X140647Y21218D01*
X140726Y21284D01*
X140808Y21347D01*
X140893Y21406D01*
X140979Y21463D01*
X141068Y21516D01*
X141159Y21566D01*
X141251Y21613D01*
X141345Y21656D01*
X141440Y21696D01*
X141537Y21732D01*
X141636Y21764D01*
X141735Y21793D01*
X141836Y21818D01*
X141937Y21839D01*
X142039Y21856D01*
X142141Y21870D01*
X142244Y21879D01*
X142348Y21885D01*
X142451Y21887D01*
X142554Y21885D01*
X142658Y21879D01*
X142761Y21870D01*
X142863Y21856D01*
X142965Y21839D01*
X143066Y21818D01*
X143167Y21793D01*
X143266Y21764D01*
X143365Y21732D01*
X143462Y21696D01*
X143557Y21656D01*
X143651Y21613D01*
X143743Y21566D01*
X143834Y21516D01*
X143923Y21463D01*
X144009Y21406D01*
X144094Y21347D01*
X144176Y21284D01*
X144255Y21218D01*
X144332Y21149D01*
X144407Y21077D01*
X144479Y21002D01*
X144548Y20925D01*
X144614Y20846D01*
X144677Y20764D01*
X144736Y20679D01*
X144793Y20593D01*
X144846Y20504D01*
X144896Y20413D01*
X144943Y20321D01*
X144986Y20227D01*
X145026Y20132D01*
X145062Y20035D01*
X145094Y19936D01*
X145123Y19837D01*
X145148Y19736D01*
X145169Y19635D01*
X145186Y19533D01*
X145200Y19431D01*
X145209Y19328D01*
X145215Y19224D01*
X145217Y19121D01*
X145217Y17738D01*
X139685Y17738D01*
X151207Y21886D02*
X151207Y13589D01*
X151207Y21886D02*
X154664Y21886D01*
X154752Y21884D01*
X154840Y21879D01*
X154927Y21869D01*
X155015Y21856D01*
X155101Y21839D01*
X155187Y21819D01*
X155271Y21795D01*
X155355Y21768D01*
X155437Y21736D01*
X155518Y21702D01*
X155598Y21664D01*
X155675Y21623D01*
X155751Y21578D01*
X155825Y21530D01*
X155897Y21479D01*
X155967Y21426D01*
X156034Y21369D01*
X156099Y21309D01*
X156161Y21247D01*
X156221Y21182D01*
X156278Y21115D01*
X156331Y21045D01*
X156382Y20973D01*
X156430Y20899D01*
X156475Y20823D01*
X156516Y20746D01*
X156554Y20666D01*
X156588Y20585D01*
X156620Y20503D01*
X156647Y20419D01*
X156671Y20335D01*
X156691Y20249D01*
X156708Y20163D01*
X156721Y20075D01*
X156731Y19988D01*
X156736Y19900D01*
X156738Y19812D01*
X156738Y13589D01*
X164802Y13589D02*
X168260Y13589D01*
X164802Y13589D02*
X164714Y13591D01*
X164626Y13596D01*
X164539Y13606D01*
X164451Y13619D01*
X164365Y13636D01*
X164279Y13656D01*
X164195Y13680D01*
X164111Y13707D01*
X164029Y13739D01*
X163948Y13773D01*
X163868Y13811D01*
X163791Y13852D01*
X163715Y13897D01*
X163641Y13945D01*
X163569Y13996D01*
X163499Y14049D01*
X163432Y14106D01*
X163367Y14166D01*
X163305Y14228D01*
X163245Y14293D01*
X163188Y14360D01*
X163135Y14430D01*
X163084Y14502D01*
X163036Y14576D01*
X162991Y14652D01*
X162950Y14729D01*
X162912Y14809D01*
X162878Y14890D01*
X162846Y14972D01*
X162819Y15056D01*
X162795Y15140D01*
X162775Y15226D01*
X162758Y15312D01*
X162745Y15400D01*
X162735Y15487D01*
X162730Y15575D01*
X162728Y15663D01*
X162728Y19121D01*
X162730Y19224D01*
X162736Y19328D01*
X162745Y19431D01*
X162759Y19533D01*
X162776Y19635D01*
X162797Y19736D01*
X162822Y19837D01*
X162851Y19936D01*
X162883Y20035D01*
X162919Y20132D01*
X162959Y20227D01*
X163002Y20321D01*
X163049Y20413D01*
X163099Y20504D01*
X163152Y20593D01*
X163209Y20679D01*
X163268Y20764D01*
X163331Y20846D01*
X163397Y20925D01*
X163466Y21002D01*
X163538Y21077D01*
X163613Y21149D01*
X163690Y21218D01*
X163769Y21284D01*
X163851Y21347D01*
X163936Y21406D01*
X164022Y21463D01*
X164111Y21516D01*
X164202Y21566D01*
X164294Y21613D01*
X164388Y21656D01*
X164483Y21696D01*
X164580Y21732D01*
X164679Y21764D01*
X164778Y21793D01*
X164879Y21818D01*
X164980Y21839D01*
X165082Y21856D01*
X165184Y21870D01*
X165287Y21879D01*
X165391Y21885D01*
X165494Y21887D01*
X165597Y21885D01*
X165701Y21879D01*
X165804Y21870D01*
X165906Y21856D01*
X166008Y21839D01*
X166109Y21818D01*
X166210Y21793D01*
X166309Y21764D01*
X166408Y21732D01*
X166505Y21696D01*
X166600Y21656D01*
X166694Y21613D01*
X166786Y21566D01*
X166877Y21516D01*
X166966Y21463D01*
X167052Y21406D01*
X167137Y21347D01*
X167219Y21284D01*
X167298Y21218D01*
X167375Y21149D01*
X167450Y21077D01*
X167522Y21002D01*
X167591Y20925D01*
X167657Y20846D01*
X167720Y20764D01*
X167779Y20679D01*
X167836Y20593D01*
X167889Y20504D01*
X167939Y20413D01*
X167986Y20321D01*
X168029Y20227D01*
X168069Y20132D01*
X168105Y20035D01*
X168137Y19936D01*
X168166Y19837D01*
X168191Y19736D01*
X168212Y19635D01*
X168229Y19533D01*
X168243Y19431D01*
X168252Y19328D01*
X168258Y19224D01*
X168260Y19121D01*
X168260Y17738D01*
X162728Y17738D01*
X174345Y13589D02*
X174345Y21886D01*
X178493Y21886D01*
X178493Y20503D01*
X185119Y18429D02*
X188231Y18429D01*
X185119Y18429D02*
X185022Y18427D01*
X184924Y18421D01*
X184827Y18411D01*
X184731Y18398D01*
X184635Y18380D01*
X184540Y18359D01*
X184446Y18333D01*
X184353Y18304D01*
X184261Y18272D01*
X184170Y18235D01*
X184082Y18195D01*
X183994Y18152D01*
X183909Y18105D01*
X183826Y18054D01*
X183744Y18001D01*
X183665Y17944D01*
X183588Y17884D01*
X183514Y17820D01*
X183443Y17754D01*
X183374Y17685D01*
X183308Y17614D01*
X183244Y17540D01*
X183184Y17463D01*
X183127Y17384D01*
X183074Y17302D01*
X183023Y17219D01*
X182976Y17134D01*
X182933Y17046D01*
X182893Y16958D01*
X182856Y16867D01*
X182824Y16775D01*
X182795Y16682D01*
X182769Y16588D01*
X182748Y16493D01*
X182730Y16397D01*
X182717Y16301D01*
X182707Y16204D01*
X182701Y16106D01*
X182699Y16009D01*
X182701Y15912D01*
X182707Y15814D01*
X182717Y15717D01*
X182730Y15621D01*
X182748Y15525D01*
X182769Y15430D01*
X182795Y15336D01*
X182824Y15243D01*
X182856Y15151D01*
X182893Y15060D01*
X182933Y14972D01*
X182976Y14884D01*
X183023Y14799D01*
X183074Y14716D01*
X183127Y14634D01*
X183184Y14555D01*
X183244Y14478D01*
X183308Y14404D01*
X183374Y14333D01*
X183443Y14264D01*
X183514Y14198D01*
X183588Y14134D01*
X183665Y14074D01*
X183744Y14017D01*
X183826Y13964D01*
X183909Y13913D01*
X183994Y13866D01*
X184082Y13823D01*
X184170Y13783D01*
X184261Y13746D01*
X184353Y13714D01*
X184446Y13685D01*
X184540Y13659D01*
X184635Y13638D01*
X184731Y13620D01*
X184827Y13607D01*
X184924Y13597D01*
X185022Y13591D01*
X185119Y13589D01*
X188231Y13589D01*
X188231Y19812D01*
X188229Y19900D01*
X188224Y19988D01*
X188214Y20075D01*
X188201Y20163D01*
X188184Y20249D01*
X188164Y20335D01*
X188140Y20419D01*
X188113Y20503D01*
X188081Y20585D01*
X188047Y20666D01*
X188009Y20746D01*
X187968Y20823D01*
X187923Y20899D01*
X187875Y20973D01*
X187824Y21045D01*
X187771Y21115D01*
X187714Y21182D01*
X187654Y21247D01*
X187592Y21309D01*
X187527Y21369D01*
X187460Y21426D01*
X187390Y21479D01*
X187318Y21530D01*
X187244Y21578D01*
X187168Y21623D01*
X187091Y21664D01*
X187011Y21702D01*
X186930Y21736D01*
X186848Y21768D01*
X186764Y21795D01*
X186680Y21819D01*
X186594Y21839D01*
X186508Y21856D01*
X186420Y21869D01*
X186333Y21879D01*
X186245Y21884D01*
X186157Y21886D01*
X183391Y21886D01*
X193157Y21886D02*
X197306Y21886D01*
X194540Y26035D02*
X194540Y15663D01*
X194542Y15575D01*
X194547Y15487D01*
X194557Y15400D01*
X194570Y15312D01*
X194587Y15226D01*
X194607Y15140D01*
X194631Y15056D01*
X194658Y14972D01*
X194690Y14890D01*
X194724Y14809D01*
X194762Y14729D01*
X194803Y14652D01*
X194848Y14576D01*
X194896Y14502D01*
X194947Y14430D01*
X195000Y14360D01*
X195057Y14293D01*
X195117Y14228D01*
X195179Y14166D01*
X195244Y14106D01*
X195311Y14049D01*
X195381Y13995D01*
X195453Y13945D01*
X195527Y13897D01*
X195603Y13852D01*
X195680Y13811D01*
X195760Y13773D01*
X195841Y13739D01*
X195923Y13707D01*
X196007Y13680D01*
X196091Y13656D01*
X196177Y13636D01*
X196264Y13619D01*
X196351Y13606D01*
X196438Y13596D01*
X196526Y13591D01*
X196614Y13589D01*
X197306Y13589D01*
X202413Y16355D02*
X202413Y19121D01*
X202415Y19224D01*
X202421Y19328D01*
X202430Y19431D01*
X202444Y19533D01*
X202461Y19635D01*
X202482Y19736D01*
X202507Y19837D01*
X202536Y19936D01*
X202568Y20035D01*
X202604Y20132D01*
X202644Y20227D01*
X202687Y20321D01*
X202734Y20413D01*
X202784Y20504D01*
X202837Y20593D01*
X202894Y20679D01*
X202953Y20764D01*
X203016Y20846D01*
X203082Y20925D01*
X203151Y21002D01*
X203223Y21077D01*
X203298Y21149D01*
X203375Y21218D01*
X203454Y21284D01*
X203536Y21347D01*
X203621Y21406D01*
X203707Y21463D01*
X203796Y21516D01*
X203887Y21566D01*
X203979Y21613D01*
X204073Y21656D01*
X204168Y21696D01*
X204265Y21732D01*
X204364Y21764D01*
X204463Y21793D01*
X204564Y21818D01*
X204665Y21839D01*
X204767Y21856D01*
X204869Y21870D01*
X204972Y21879D01*
X205076Y21885D01*
X205179Y21887D01*
X205282Y21885D01*
X205386Y21879D01*
X205489Y21870D01*
X205591Y21856D01*
X205693Y21839D01*
X205794Y21818D01*
X205895Y21793D01*
X205994Y21764D01*
X206093Y21732D01*
X206190Y21696D01*
X206285Y21656D01*
X206379Y21613D01*
X206471Y21566D01*
X206562Y21516D01*
X206651Y21463D01*
X206737Y21406D01*
X206822Y21347D01*
X206904Y21284D01*
X206983Y21218D01*
X207060Y21149D01*
X207135Y21077D01*
X207207Y21002D01*
X207276Y20925D01*
X207342Y20846D01*
X207405Y20764D01*
X207464Y20679D01*
X207521Y20593D01*
X207574Y20504D01*
X207624Y20413D01*
X207671Y20321D01*
X207714Y20227D01*
X207754Y20132D01*
X207790Y20035D01*
X207822Y19936D01*
X207851Y19837D01*
X207876Y19736D01*
X207897Y19635D01*
X207914Y19533D01*
X207928Y19431D01*
X207937Y19328D01*
X207943Y19224D01*
X207945Y19121D01*
X207944Y19121D02*
X207944Y16355D01*
X207945Y16355D02*
X207943Y16252D01*
X207937Y16148D01*
X207928Y16045D01*
X207914Y15943D01*
X207897Y15841D01*
X207876Y15740D01*
X207851Y15639D01*
X207822Y15540D01*
X207790Y15441D01*
X207754Y15344D01*
X207714Y15249D01*
X207671Y15155D01*
X207624Y15063D01*
X207574Y14972D01*
X207521Y14883D01*
X207464Y14797D01*
X207405Y14712D01*
X207342Y14630D01*
X207276Y14551D01*
X207207Y14474D01*
X207135Y14399D01*
X207060Y14327D01*
X206983Y14258D01*
X206904Y14192D01*
X206822Y14129D01*
X206737Y14070D01*
X206651Y14013D01*
X206562Y13960D01*
X206471Y13910D01*
X206379Y13863D01*
X206285Y13820D01*
X206190Y13780D01*
X206093Y13744D01*
X205994Y13712D01*
X205895Y13683D01*
X205794Y13658D01*
X205693Y13637D01*
X205591Y13620D01*
X205489Y13606D01*
X205386Y13597D01*
X205282Y13591D01*
X205179Y13589D01*
X205076Y13591D01*
X204972Y13597D01*
X204869Y13606D01*
X204767Y13620D01*
X204665Y13637D01*
X204564Y13658D01*
X204463Y13683D01*
X204364Y13712D01*
X204265Y13744D01*
X204168Y13780D01*
X204073Y13820D01*
X203979Y13863D01*
X203887Y13910D01*
X203796Y13960D01*
X203707Y14013D01*
X203621Y14070D01*
X203536Y14129D01*
X203454Y14192D01*
X203375Y14258D01*
X203298Y14327D01*
X203223Y14399D01*
X203151Y14474D01*
X203082Y14551D01*
X203016Y14630D01*
X202953Y14712D01*
X202894Y14797D01*
X202837Y14883D01*
X202784Y14972D01*
X202734Y15063D01*
X202687Y15155D01*
X202644Y15249D01*
X202604Y15344D01*
X202568Y15441D01*
X202536Y15540D01*
X202507Y15639D01*
X202482Y15740D01*
X202461Y15841D01*
X202444Y15943D01*
X202430Y16045D01*
X202421Y16148D01*
X202415Y16252D01*
X202413Y16355D01*
X214030Y13589D02*
X214030Y21886D01*
X218178Y21886D01*
X218178Y20503D01*
X208238Y153508D02*
X204089Y159385D01*
X208238Y153508D02*
X212386Y159385D01*
X208238Y153508D02*
X208238Y146939D01*
X219756Y151779D02*
X222867Y151779D01*
X219756Y151779D02*
X219659Y151777D01*
X219561Y151771D01*
X219464Y151761D01*
X219368Y151748D01*
X219272Y151730D01*
X219177Y151709D01*
X219083Y151683D01*
X218990Y151654D01*
X218898Y151622D01*
X218807Y151585D01*
X218719Y151545D01*
X218631Y151502D01*
X218546Y151455D01*
X218463Y151404D01*
X218381Y151351D01*
X218302Y151294D01*
X218225Y151234D01*
X218151Y151170D01*
X218080Y151104D01*
X218011Y151035D01*
X217945Y150964D01*
X217881Y150890D01*
X217821Y150813D01*
X217764Y150734D01*
X217711Y150652D01*
X217660Y150569D01*
X217613Y150484D01*
X217570Y150396D01*
X217530Y150308D01*
X217493Y150217D01*
X217461Y150125D01*
X217432Y150032D01*
X217406Y149938D01*
X217385Y149843D01*
X217367Y149747D01*
X217354Y149651D01*
X217344Y149554D01*
X217338Y149456D01*
X217336Y149359D01*
X217338Y149262D01*
X217344Y149164D01*
X217354Y149067D01*
X217367Y148971D01*
X217385Y148875D01*
X217406Y148780D01*
X217432Y148686D01*
X217461Y148593D01*
X217493Y148501D01*
X217530Y148410D01*
X217570Y148322D01*
X217613Y148234D01*
X217660Y148149D01*
X217711Y148066D01*
X217764Y147984D01*
X217821Y147905D01*
X217881Y147828D01*
X217945Y147754D01*
X218011Y147683D01*
X218080Y147614D01*
X218151Y147548D01*
X218225Y147484D01*
X218302Y147424D01*
X218381Y147367D01*
X218463Y147314D01*
X218546Y147263D01*
X218631Y147216D01*
X218719Y147173D01*
X218807Y147133D01*
X218898Y147096D01*
X218990Y147064D01*
X219083Y147035D01*
X219177Y147009D01*
X219272Y146988D01*
X219368Y146970D01*
X219464Y146957D01*
X219561Y146947D01*
X219659Y146941D01*
X219756Y146939D01*
X222867Y146939D01*
X222867Y153162D01*
X222865Y153250D01*
X222860Y153338D01*
X222850Y153425D01*
X222837Y153513D01*
X222820Y153599D01*
X222800Y153685D01*
X222776Y153769D01*
X222749Y153853D01*
X222717Y153935D01*
X222683Y154016D01*
X222645Y154096D01*
X222604Y154173D01*
X222559Y154249D01*
X222511Y154323D01*
X222460Y154395D01*
X222407Y154465D01*
X222350Y154532D01*
X222290Y154597D01*
X222228Y154659D01*
X222163Y154719D01*
X222096Y154776D01*
X222026Y154829D01*
X221954Y154880D01*
X221880Y154928D01*
X221804Y154973D01*
X221727Y155014D01*
X221647Y155052D01*
X221566Y155086D01*
X221484Y155118D01*
X221400Y155145D01*
X221316Y155169D01*
X221230Y155189D01*
X221144Y155206D01*
X221056Y155219D01*
X220969Y155229D01*
X220881Y155234D01*
X220793Y155236D01*
X218027Y155236D01*
X229453Y155236D02*
X229453Y142790D01*
X229453Y155236D02*
X232910Y155236D01*
X232998Y155234D01*
X233086Y155229D01*
X233173Y155219D01*
X233261Y155206D01*
X233347Y155189D01*
X233433Y155169D01*
X233517Y155145D01*
X233601Y155118D01*
X233683Y155086D01*
X233764Y155052D01*
X233844Y155014D01*
X233921Y154973D01*
X233997Y154928D01*
X234071Y154880D01*
X234143Y154829D01*
X234213Y154776D01*
X234280Y154719D01*
X234345Y154659D01*
X234407Y154597D01*
X234467Y154532D01*
X234524Y154465D01*
X234577Y154395D01*
X234628Y154323D01*
X234676Y154249D01*
X234721Y154173D01*
X234762Y154096D01*
X234800Y154016D01*
X234834Y153935D01*
X234866Y153853D01*
X234893Y153769D01*
X234917Y153685D01*
X234937Y153599D01*
X234954Y153513D01*
X234967Y153425D01*
X234977Y153338D01*
X234982Y153250D01*
X234984Y153162D01*
X234984Y149013D01*
X234982Y148925D01*
X234977Y148837D01*
X234967Y148750D01*
X234954Y148662D01*
X234937Y148576D01*
X234917Y148490D01*
X234893Y148406D01*
X234866Y148322D01*
X234834Y148240D01*
X234800Y148159D01*
X234762Y148079D01*
X234721Y148002D01*
X234676Y147926D01*
X234628Y147852D01*
X234577Y147780D01*
X234524Y147710D01*
X234467Y147643D01*
X234407Y147578D01*
X234345Y147516D01*
X234280Y147456D01*
X234213Y147399D01*
X234143Y147346D01*
X234071Y147295D01*
X233997Y147247D01*
X233921Y147202D01*
X233844Y147161D01*
X233764Y147123D01*
X233683Y147089D01*
X233601Y147057D01*
X233517Y147030D01*
X233433Y147006D01*
X233347Y146986D01*
X233261Y146969D01*
X233173Y146956D01*
X233086Y146946D01*
X232998Y146941D01*
X232910Y146939D01*
X229453Y146939D01*
X240463Y149705D02*
X240463Y152471D01*
X240465Y152574D01*
X240471Y152678D01*
X240480Y152781D01*
X240494Y152883D01*
X240511Y152985D01*
X240532Y153086D01*
X240557Y153187D01*
X240586Y153286D01*
X240618Y153385D01*
X240654Y153482D01*
X240694Y153577D01*
X240737Y153671D01*
X240784Y153763D01*
X240834Y153854D01*
X240887Y153943D01*
X240944Y154029D01*
X241003Y154114D01*
X241066Y154196D01*
X241132Y154275D01*
X241201Y154352D01*
X241273Y154427D01*
X241348Y154499D01*
X241425Y154568D01*
X241504Y154634D01*
X241586Y154697D01*
X241671Y154756D01*
X241757Y154813D01*
X241846Y154866D01*
X241937Y154916D01*
X242029Y154963D01*
X242123Y155006D01*
X242218Y155046D01*
X242315Y155082D01*
X242414Y155114D01*
X242513Y155143D01*
X242614Y155168D01*
X242715Y155189D01*
X242817Y155206D01*
X242919Y155220D01*
X243022Y155229D01*
X243126Y155235D01*
X243229Y155237D01*
X243332Y155235D01*
X243436Y155229D01*
X243539Y155220D01*
X243641Y155206D01*
X243743Y155189D01*
X243844Y155168D01*
X243945Y155143D01*
X244044Y155114D01*
X244143Y155082D01*
X244240Y155046D01*
X244335Y155006D01*
X244429Y154963D01*
X244521Y154916D01*
X244612Y154866D01*
X244701Y154813D01*
X244787Y154756D01*
X244872Y154697D01*
X244954Y154634D01*
X245033Y154568D01*
X245110Y154499D01*
X245185Y154427D01*
X245257Y154352D01*
X245326Y154275D01*
X245392Y154196D01*
X245455Y154114D01*
X245514Y154029D01*
X245571Y153943D01*
X245624Y153854D01*
X245674Y153763D01*
X245721Y153671D01*
X245764Y153577D01*
X245804Y153482D01*
X245840Y153385D01*
X245872Y153286D01*
X245901Y153187D01*
X245926Y153086D01*
X245947Y152985D01*
X245964Y152883D01*
X245978Y152781D01*
X245987Y152678D01*
X245993Y152574D01*
X245995Y152471D01*
X245994Y152471D02*
X245994Y149705D01*
X245995Y149705D02*
X245993Y149602D01*
X245987Y149498D01*
X245978Y149395D01*
X245964Y149293D01*
X245947Y149191D01*
X245926Y149090D01*
X245901Y148989D01*
X245872Y148890D01*
X245840Y148791D01*
X245804Y148694D01*
X245764Y148599D01*
X245721Y148505D01*
X245674Y148413D01*
X245624Y148322D01*
X245571Y148233D01*
X245514Y148147D01*
X245455Y148062D01*
X245392Y147980D01*
X245326Y147901D01*
X245257Y147824D01*
X245185Y147749D01*
X245110Y147677D01*
X245033Y147608D01*
X244954Y147542D01*
X244872Y147479D01*
X244787Y147420D01*
X244701Y147363D01*
X244612Y147310D01*
X244521Y147260D01*
X244429Y147213D01*
X244335Y147170D01*
X244240Y147130D01*
X244143Y147094D01*
X244044Y147062D01*
X243945Y147033D01*
X243844Y147008D01*
X243743Y146987D01*
X243641Y146970D01*
X243539Y146956D01*
X243436Y146947D01*
X243332Y146941D01*
X243229Y146939D01*
X243126Y146941D01*
X243022Y146947D01*
X242919Y146956D01*
X242817Y146970D01*
X242715Y146987D01*
X242614Y147008D01*
X242513Y147033D01*
X242414Y147062D01*
X242315Y147094D01*
X242218Y147130D01*
X242123Y147170D01*
X242029Y147213D01*
X241937Y147260D01*
X241846Y147310D01*
X241757Y147363D01*
X241671Y147420D01*
X241586Y147479D01*
X241504Y147542D01*
X241425Y147608D01*
X241348Y147677D01*
X241273Y147749D01*
X241201Y147824D01*
X241132Y147901D01*
X241066Y147980D01*
X241003Y148062D01*
X240944Y148147D01*
X240887Y148233D01*
X240834Y148322D01*
X240784Y148413D01*
X240737Y148505D01*
X240694Y148599D01*
X240654Y148694D01*
X240618Y148791D01*
X240586Y148890D01*
X240557Y148989D01*
X240532Y149090D01*
X240511Y149191D01*
X240494Y149293D01*
X240480Y149395D01*
X240471Y149498D01*
X240465Y149602D01*
X240463Y149705D01*
X211004Y130874D02*
X211002Y130985D01*
X210996Y131096D01*
X210986Y131207D01*
X210972Y131317D01*
X210955Y131427D01*
X210933Y131536D01*
X210907Y131644D01*
X210878Y131751D01*
X210845Y131857D01*
X210808Y131962D01*
X210767Y132065D01*
X210723Y132167D01*
X210675Y132267D01*
X210623Y132365D01*
X210568Y132462D01*
X210510Y132556D01*
X210448Y132649D01*
X210383Y132739D01*
X210315Y132827D01*
X210244Y132912D01*
X210170Y132995D01*
X210093Y133075D01*
X210013Y133152D01*
X209930Y133226D01*
X209845Y133297D01*
X209757Y133365D01*
X209667Y133430D01*
X209574Y133492D01*
X209480Y133550D01*
X209383Y133605D01*
X209285Y133657D01*
X209185Y133705D01*
X209083Y133749D01*
X208980Y133790D01*
X208875Y133827D01*
X208769Y133860D01*
X208662Y133889D01*
X208554Y133915D01*
X208445Y133937D01*
X208335Y133954D01*
X208225Y133968D01*
X208114Y133978D01*
X208003Y133984D01*
X207892Y133986D01*
X207892Y133985D02*
X207766Y133983D01*
X207641Y133977D01*
X207516Y133967D01*
X207391Y133953D01*
X207266Y133936D01*
X207142Y133914D01*
X207019Y133889D01*
X206897Y133859D01*
X206776Y133826D01*
X206656Y133789D01*
X206537Y133748D01*
X206420Y133704D01*
X206303Y133656D01*
X206189Y133604D01*
X206076Y133549D01*
X205965Y133490D01*
X205856Y133428D01*
X205749Y133362D01*
X205644Y133293D01*
X205541Y133221D01*
X205441Y133145D01*
X205343Y133066D01*
X205247Y132985D01*
X205154Y132900D01*
X205064Y132813D01*
X204977Y132722D01*
X204892Y132629D01*
X204811Y132534D01*
X204732Y132436D01*
X204657Y132335D01*
X204584Y132232D01*
X204516Y132127D01*
X204450Y132020D01*
X204388Y131911D01*
X204329Y131800D01*
X204274Y131687D01*
X204222Y131572D01*
X204174Y131456D01*
X204130Y131338D01*
X204089Y131220D01*
X209967Y128454D02*
X210047Y128533D01*
X210125Y128615D01*
X210200Y128699D01*
X210271Y128786D01*
X210340Y128875D01*
X210406Y128967D01*
X210469Y129060D01*
X210529Y129156D01*
X210585Y129254D01*
X210638Y129353D01*
X210688Y129455D01*
X210734Y129557D01*
X210776Y129662D01*
X210816Y129768D01*
X210851Y129875D01*
X210883Y129983D01*
X210911Y130092D01*
X210936Y130202D01*
X210957Y130313D01*
X210974Y130424D01*
X210987Y130536D01*
X210996Y130649D01*
X211002Y130761D01*
X211004Y130874D01*
X209966Y128453D02*
X204089Y121539D01*
X211003Y121539D01*
X216891Y127762D02*
X216894Y128007D01*
X216903Y128252D01*
X216917Y128496D01*
X216938Y128740D01*
X216964Y128983D01*
X216996Y129226D01*
X217034Y129468D01*
X217077Y129709D01*
X217127Y129949D01*
X217182Y130187D01*
X217243Y130424D01*
X217309Y130660D01*
X217381Y130894D01*
X217459Y131126D01*
X217542Y131357D01*
X217630Y131585D01*
X217724Y131811D01*
X217823Y132035D01*
X217928Y132256D01*
X217928Y132257D02*
X217962Y132350D01*
X218000Y132442D01*
X218041Y132532D01*
X218085Y132620D01*
X218133Y132707D01*
X218185Y132792D01*
X218239Y132875D01*
X218297Y132955D01*
X218358Y133034D01*
X218421Y133110D01*
X218488Y133183D01*
X218558Y133254D01*
X218630Y133322D01*
X218704Y133387D01*
X218782Y133449D01*
X218861Y133509D01*
X218943Y133565D01*
X219027Y133617D01*
X219113Y133667D01*
X219201Y133713D01*
X219290Y133756D01*
X219381Y133795D01*
X219474Y133831D01*
X219567Y133863D01*
X219662Y133891D01*
X219758Y133916D01*
X219855Y133937D01*
X219953Y133954D01*
X220051Y133968D01*
X220150Y133977D01*
X220249Y133983D01*
X220348Y133985D01*
X220447Y133983D01*
X220546Y133977D01*
X220645Y133968D01*
X220743Y133954D01*
X220841Y133937D01*
X220938Y133916D01*
X221034Y133891D01*
X221129Y133863D01*
X221222Y133831D01*
X221315Y133795D01*
X221406Y133756D01*
X221496Y133713D01*
X221583Y133667D01*
X221669Y133617D01*
X221753Y133565D01*
X221835Y133509D01*
X221914Y133449D01*
X221992Y133387D01*
X222066Y133322D01*
X222138Y133254D01*
X222208Y133183D01*
X222275Y133110D01*
X222338Y133034D01*
X222399Y132955D01*
X222457Y132875D01*
X222511Y132792D01*
X222563Y132707D01*
X222611Y132620D01*
X222655Y132532D01*
X222696Y132441D01*
X222734Y132350D01*
X222768Y132257D01*
X222768Y132256D02*
X222872Y132035D01*
X222972Y131811D01*
X223066Y131585D01*
X223154Y131357D01*
X223237Y131126D01*
X223315Y130894D01*
X223387Y130660D01*
X223453Y130425D01*
X223514Y130187D01*
X223569Y129949D01*
X223619Y129709D01*
X223662Y129468D01*
X223700Y129226D01*
X223732Y128983D01*
X223758Y128740D01*
X223779Y128496D01*
X223793Y128252D01*
X223802Y128007D01*
X223805Y127762D01*
X216890Y127762D02*
X216893Y127517D01*
X216902Y127272D01*
X216916Y127028D01*
X216937Y126784D01*
X216963Y126541D01*
X216995Y126298D01*
X217033Y126056D01*
X217076Y125815D01*
X217126Y125575D01*
X217181Y125337D01*
X217242Y125099D01*
X217308Y124864D01*
X217380Y124630D01*
X217458Y124397D01*
X217541Y124167D01*
X217629Y123939D01*
X217723Y123713D01*
X217823Y123489D01*
X217927Y123267D01*
X217928Y123267D02*
X217962Y123174D01*
X218000Y123082D01*
X218041Y122992D01*
X218085Y122904D01*
X218133Y122817D01*
X218185Y122732D01*
X218239Y122649D01*
X218297Y122569D01*
X218358Y122490D01*
X218421Y122414D01*
X218488Y122341D01*
X218558Y122270D01*
X218630Y122202D01*
X218704Y122137D01*
X218782Y122075D01*
X218861Y122015D01*
X218943Y121959D01*
X219027Y121907D01*
X219113Y121857D01*
X219201Y121811D01*
X219290Y121768D01*
X219381Y121729D01*
X219474Y121693D01*
X219567Y121661D01*
X219662Y121633D01*
X219758Y121608D01*
X219855Y121587D01*
X219953Y121570D01*
X220051Y121556D01*
X220150Y121547D01*
X220249Y121541D01*
X220348Y121539D01*
X222768Y123268D02*
X222873Y123489D01*
X222972Y123713D01*
X223066Y123939D01*
X223154Y124167D01*
X223237Y124398D01*
X223315Y124630D01*
X223387Y124864D01*
X223453Y125100D01*
X223514Y125337D01*
X223569Y125575D01*
X223619Y125815D01*
X223662Y126056D01*
X223700Y126298D01*
X223732Y126541D01*
X223758Y126784D01*
X223779Y127028D01*
X223793Y127272D01*
X223802Y127517D01*
X223805Y127762D01*
X222768Y123267D02*
X222734Y123174D01*
X222696Y123082D01*
X222655Y122992D01*
X222611Y122904D01*
X222563Y122817D01*
X222511Y122732D01*
X222457Y122649D01*
X222399Y122569D01*
X222338Y122490D01*
X222275Y122414D01*
X222208Y122341D01*
X222138Y122270D01*
X222066Y122202D01*
X221992Y122137D01*
X221914Y122075D01*
X221835Y122015D01*
X221753Y121959D01*
X221669Y121907D01*
X221583Y121857D01*
X221496Y121811D01*
X221406Y121768D01*
X221315Y121729D01*
X221222Y121693D01*
X221129Y121661D01*
X221034Y121633D01*
X220938Y121608D01*
X220841Y121587D01*
X220743Y121570D01*
X220645Y121556D01*
X220546Y121547D01*
X220447Y121541D01*
X220348Y121539D01*
X217582Y124305D02*
X223114Y131219D01*
X229692Y131219D02*
X233149Y133985D01*
X233149Y121539D01*
X229692Y121539D02*
X236607Y121539D01*
X245259Y127071D02*
X249408Y127071D01*
X245259Y127070D02*
X245156Y127072D01*
X245052Y127078D01*
X244949Y127087D01*
X244847Y127101D01*
X244745Y127118D01*
X244644Y127139D01*
X244543Y127164D01*
X244444Y127193D01*
X244345Y127225D01*
X244248Y127261D01*
X244153Y127301D01*
X244059Y127344D01*
X243967Y127391D01*
X243876Y127441D01*
X243787Y127494D01*
X243701Y127551D01*
X243616Y127610D01*
X243534Y127673D01*
X243455Y127739D01*
X243378Y127808D01*
X243303Y127880D01*
X243231Y127955D01*
X243162Y128032D01*
X243096Y128111D01*
X243033Y128194D01*
X242974Y128278D01*
X242917Y128364D01*
X242864Y128453D01*
X242814Y128544D01*
X242767Y128636D01*
X242724Y128730D01*
X242684Y128825D01*
X242648Y128922D01*
X242616Y129021D01*
X242587Y129120D01*
X242562Y129221D01*
X242541Y129322D01*
X242524Y129424D01*
X242510Y129526D01*
X242501Y129629D01*
X242495Y129733D01*
X242493Y129836D01*
X242494Y129836D02*
X242494Y130528D01*
X242496Y130645D01*
X242502Y130761D01*
X242512Y130878D01*
X242526Y130994D01*
X242543Y131109D01*
X242565Y131224D01*
X242590Y131338D01*
X242619Y131451D01*
X242653Y131563D01*
X242689Y131674D01*
X242730Y131783D01*
X242774Y131891D01*
X242822Y131998D01*
X242873Y132103D01*
X242928Y132206D01*
X242987Y132307D01*
X243049Y132406D01*
X243114Y132503D01*
X243182Y132598D01*
X243253Y132690D01*
X243328Y132780D01*
X243406Y132867D01*
X243486Y132952D01*
X243569Y133034D01*
X243655Y133113D01*
X243744Y133189D01*
X243835Y133262D01*
X243928Y133332D01*
X244024Y133398D01*
X244122Y133462D01*
X244223Y133522D01*
X244325Y133579D01*
X244429Y133632D01*
X244534Y133681D01*
X244642Y133727D01*
X244750Y133770D01*
X244861Y133809D01*
X244972Y133843D01*
X245084Y133875D01*
X245198Y133902D01*
X245312Y133926D01*
X245428Y133945D01*
X245543Y133961D01*
X245659Y133973D01*
X245776Y133981D01*
X245893Y133985D01*
X246009Y133985D01*
X246126Y133981D01*
X246243Y133973D01*
X246359Y133961D01*
X246474Y133945D01*
X246590Y133926D01*
X246704Y133902D01*
X246818Y133875D01*
X246930Y133843D01*
X247041Y133809D01*
X247152Y133770D01*
X247260Y133727D01*
X247368Y133681D01*
X247473Y133632D01*
X247577Y133579D01*
X247680Y133522D01*
X247780Y133462D01*
X247878Y133398D01*
X247974Y133332D01*
X248067Y133262D01*
X248158Y133189D01*
X248247Y133113D01*
X248333Y133034D01*
X248416Y132952D01*
X248496Y132867D01*
X248574Y132780D01*
X248649Y132690D01*
X248720Y132598D01*
X248788Y132503D01*
X248853Y132406D01*
X248915Y132307D01*
X248974Y132206D01*
X249029Y132103D01*
X249080Y131998D01*
X249128Y131891D01*
X249172Y131783D01*
X249213Y131674D01*
X249249Y131563D01*
X249283Y131451D01*
X249312Y131338D01*
X249337Y131224D01*
X249359Y131109D01*
X249376Y130994D01*
X249390Y130878D01*
X249400Y130761D01*
X249406Y130645D01*
X249408Y130528D01*
X249408Y127071D01*
X249409Y127071D02*
X249407Y126924D01*
X249401Y126777D01*
X249391Y126630D01*
X249378Y126483D01*
X249360Y126337D01*
X249339Y126191D01*
X249313Y126046D01*
X249284Y125902D01*
X249251Y125758D01*
X249214Y125616D01*
X249173Y125474D01*
X249129Y125334D01*
X249081Y125194D01*
X249029Y125056D01*
X248974Y124920D01*
X248915Y124785D01*
X248852Y124652D01*
X248786Y124520D01*
X248716Y124390D01*
X248643Y124263D01*
X248567Y124137D01*
X248487Y124013D01*
X248404Y123891D01*
X248318Y123772D01*
X248228Y123655D01*
X248136Y123540D01*
X248040Y123428D01*
X247942Y123319D01*
X247840Y123212D01*
X247736Y123108D01*
X247629Y123006D01*
X247520Y122908D01*
X247408Y122812D01*
X247293Y122720D01*
X247176Y122630D01*
X247057Y122544D01*
X246935Y122461D01*
X246811Y122381D01*
X246685Y122305D01*
X246558Y122232D01*
X246428Y122162D01*
X246296Y122096D01*
X246163Y122033D01*
X246028Y121974D01*
X245892Y121919D01*
X245754Y121867D01*
X245614Y121819D01*
X245474Y121775D01*
X245332Y121734D01*
X245190Y121697D01*
X245046Y121664D01*
X244902Y121635D01*
X244757Y121609D01*
X244611Y121588D01*
X244465Y121570D01*
X244318Y121557D01*
X244171Y121547D01*
X244024Y121541D01*
X243877Y121539D01*
D11*
X44450Y57150D02*
X19050Y57150D01*
X44450Y57150D02*
X44450Y44450D01*
X19050Y44450D01*
X19050Y57150D01*
X76200Y107950D02*
X101600Y107950D01*
X101600Y95250D01*
X76200Y95250D01*
X76200Y107950D01*
X50800Y107950D02*
X25400Y107950D01*
X50800Y107950D02*
X50800Y95250D01*
X25400Y95250D01*
X25400Y107950D01*
X34900Y150950D02*
X79400Y150950D01*
X79400Y128450D01*
X34900Y128450D01*
X34900Y150950D01*
X82550Y165100D02*
X82550Y190500D01*
X31750Y190500D01*
X31750Y165100D01*
X82550Y165100D01*
X136650Y228600D02*
X136650Y243600D01*
X157900Y243600D01*
X210400Y243600D01*
X231650Y243600D01*
X231650Y228600D01*
X136650Y228600D01*
X157900Y243600D02*
X157900Y318600D01*
X210400Y307350D02*
X210400Y243600D01*
X210400Y318600D02*
X157900Y318600D01*
X210400Y318600D02*
X210400Y308600D01*
X212900Y276100D02*
X155400Y272350D01*
X155400Y278600D02*
X212900Y282350D01*
X212900Y288600D02*
X155400Y284850D01*
X155400Y291100D02*
X212900Y294850D01*
X212900Y301100D02*
X155400Y297350D01*
X155400Y303600D02*
X212900Y307350D01*
X172750Y159400D02*
X144750Y159400D01*
X172750Y159400D02*
X172750Y145400D01*
X144750Y145400D01*
X144750Y159400D01*
X144750Y126350D02*
X172750Y126350D01*
X144750Y126350D02*
X144750Y140350D01*
X172750Y140350D01*
X172750Y126350D01*
X113650Y83850D02*
X113650Y55850D01*
X113650Y83850D02*
X127650Y83850D01*
X127650Y55850D01*
X113650Y55850D01*
X132050Y83200D02*
X160050Y83200D01*
X160050Y69200D01*
X132050Y69200D01*
X132050Y83200D01*
X191150Y125700D02*
X191150Y153700D01*
X191150Y125700D02*
X177150Y125700D01*
X177150Y153700D01*
X191150Y153700D01*
X77500Y57800D02*
X49500Y57800D01*
X77500Y57800D02*
X77500Y43800D01*
X49500Y43800D01*
X49500Y57800D01*
X46100Y71200D02*
X46100Y81200D01*
X46100Y62200D02*
X46100Y61700D01*
X30100Y61700D01*
X30100Y62200D01*
X30100Y90200D02*
X30100Y90700D01*
X46100Y90700D01*
X46100Y90200D01*
X96900Y81200D02*
X96900Y71200D01*
X96900Y62200D02*
X96900Y61700D01*
X80900Y61700D01*
X80900Y62200D01*
X80900Y90200D02*
X80900Y90700D01*
X96900Y90700D01*
X96900Y90200D01*
M02*
