G04 EAGLE Gerber RS-274X export*
G75*
%MOMM*%
%FSLAX34Y34*%
%LPD*%
%INTop Solder Mask*%
%IPPOS*%
%AMOC8*
5,1,8,0,0,1.08239X$1,22.5*%
G01*
%ADD10R,0.927000X0.927000*%
%ADD11R,1.027000X1.727000*%
%ADD12C,2.032000*%
%ADD13P,2.886734X8X22.500000*%
%ADD14P,2.226909X8X202.500000*%
%ADD15R,1.168400X5.842000*%
%ADD16R,2.667000X6.477000*%
%ADD17C,0.731000*%
%ADD18R,1.077000X1.077000*%
%ADD19R,1.127000X0.727000*%

G36*
X160078Y164093D02*
X160078Y164093D01*
X160136Y164091D01*
X160218Y164113D01*
X160302Y164125D01*
X160355Y164149D01*
X160411Y164163D01*
X160484Y164206D01*
X160561Y164241D01*
X160606Y164279D01*
X160656Y164309D01*
X160714Y164370D01*
X160778Y164425D01*
X160810Y164473D01*
X160850Y164516D01*
X160889Y164591D01*
X160936Y164661D01*
X160953Y164717D01*
X160980Y164769D01*
X160991Y164837D01*
X161021Y164932D01*
X161024Y165032D01*
X161035Y165100D01*
X161035Y228600D01*
X161027Y228658D01*
X161029Y228716D01*
X161007Y228798D01*
X160995Y228882D01*
X160972Y228935D01*
X160957Y228991D01*
X160914Y229064D01*
X160879Y229141D01*
X160841Y229186D01*
X160812Y229236D01*
X160750Y229294D01*
X160696Y229358D01*
X160647Y229390D01*
X160604Y229430D01*
X160529Y229469D01*
X160459Y229516D01*
X160403Y229533D01*
X160351Y229560D01*
X160283Y229571D01*
X160188Y229601D01*
X160088Y229604D01*
X160020Y229615D01*
X114300Y229615D01*
X114242Y229607D01*
X114184Y229609D01*
X114102Y229587D01*
X114019Y229575D01*
X113965Y229552D01*
X113909Y229537D01*
X113836Y229494D01*
X113759Y229459D01*
X113714Y229421D01*
X113664Y229392D01*
X113606Y229330D01*
X113542Y229276D01*
X113510Y229227D01*
X113470Y229184D01*
X113431Y229109D01*
X113385Y229039D01*
X113367Y228983D01*
X113340Y228931D01*
X113329Y228863D01*
X113299Y228768D01*
X113296Y228668D01*
X113285Y228600D01*
X113285Y165100D01*
X113293Y165042D01*
X113291Y164984D01*
X113313Y164902D01*
X113325Y164819D01*
X113349Y164765D01*
X113363Y164709D01*
X113406Y164636D01*
X113441Y164559D01*
X113479Y164514D01*
X113509Y164464D01*
X113570Y164406D01*
X113625Y164342D01*
X113673Y164310D01*
X113716Y164270D01*
X113791Y164231D01*
X113861Y164185D01*
X113917Y164167D01*
X113969Y164140D01*
X114037Y164129D01*
X114132Y164099D01*
X114232Y164096D01*
X114300Y164085D01*
X160020Y164085D01*
X160078Y164093D01*
G37*
G36*
X254058Y164093D02*
X254058Y164093D01*
X254116Y164091D01*
X254198Y164113D01*
X254282Y164125D01*
X254335Y164149D01*
X254391Y164163D01*
X254464Y164206D01*
X254541Y164241D01*
X254586Y164279D01*
X254636Y164309D01*
X254694Y164370D01*
X254758Y164425D01*
X254790Y164473D01*
X254830Y164516D01*
X254869Y164591D01*
X254916Y164661D01*
X254933Y164717D01*
X254960Y164769D01*
X254971Y164837D01*
X255001Y164932D01*
X255004Y165032D01*
X255015Y165100D01*
X255015Y228600D01*
X255007Y228658D01*
X255009Y228716D01*
X254987Y228798D01*
X254975Y228882D01*
X254952Y228935D01*
X254937Y228991D01*
X254894Y229064D01*
X254859Y229141D01*
X254821Y229186D01*
X254792Y229236D01*
X254730Y229294D01*
X254676Y229358D01*
X254627Y229390D01*
X254584Y229430D01*
X254509Y229469D01*
X254439Y229516D01*
X254383Y229533D01*
X254331Y229560D01*
X254263Y229571D01*
X254168Y229601D01*
X254068Y229604D01*
X254000Y229615D01*
X208280Y229615D01*
X208222Y229607D01*
X208164Y229609D01*
X208082Y229587D01*
X207999Y229575D01*
X207945Y229552D01*
X207889Y229537D01*
X207816Y229494D01*
X207739Y229459D01*
X207694Y229421D01*
X207644Y229392D01*
X207586Y229330D01*
X207522Y229276D01*
X207490Y229227D01*
X207450Y229184D01*
X207411Y229109D01*
X207365Y229039D01*
X207347Y228983D01*
X207320Y228931D01*
X207309Y228863D01*
X207279Y228768D01*
X207276Y228668D01*
X207265Y228600D01*
X207265Y165100D01*
X207273Y165042D01*
X207271Y164984D01*
X207293Y164902D01*
X207305Y164819D01*
X207329Y164765D01*
X207343Y164709D01*
X207386Y164636D01*
X207421Y164559D01*
X207459Y164514D01*
X207489Y164464D01*
X207550Y164406D01*
X207605Y164342D01*
X207653Y164310D01*
X207696Y164270D01*
X207771Y164231D01*
X207841Y164185D01*
X207897Y164167D01*
X207949Y164140D01*
X208017Y164129D01*
X208112Y164099D01*
X208212Y164096D01*
X208280Y164085D01*
X254000Y164085D01*
X254058Y164093D01*
G37*
D10*
X24250Y50800D03*
X39250Y50800D03*
X81400Y101600D03*
X96400Y101600D03*
X30600Y101600D03*
X45600Y101600D03*
D11*
X41650Y139700D03*
X72650Y139700D03*
D12*
X184150Y76200D03*
D13*
X154150Y106200D03*
X214150Y106200D03*
X214150Y46200D03*
X154150Y46200D03*
D14*
X44450Y177800D03*
X69850Y177800D03*
D15*
X184150Y199850D03*
D16*
X225425Y196850D03*
X142875Y196850D03*
D17*
X120650Y177800D03*
X120650Y196850D03*
X120650Y215900D03*
X247650Y177800D03*
X247650Y196850D03*
X247650Y215900D03*
D18*
X151500Y152400D03*
X166000Y152400D03*
X166000Y133350D03*
X151500Y133350D03*
X120650Y62600D03*
X120650Y77100D03*
X138800Y76200D03*
X153300Y76200D03*
X184150Y146950D03*
X184150Y132450D03*
X56250Y50800D03*
X70750Y50800D03*
D19*
X26100Y85700D03*
X26100Y76200D03*
X26100Y66700D03*
X50100Y66700D03*
X50100Y85700D03*
X76900Y85700D03*
X76900Y76200D03*
X76900Y66700D03*
X100900Y66700D03*
X100900Y85700D03*
M02*
