G04 EAGLE Gerber RS-274X export*
G75*
%MOMM*%
%FSLAX34Y34*%
%LPD*%
%INBottom Copper Layer*%
%IPPOS*%
%AMOC8*
5,1,8,0,0,1.08239X$1,22.5*%
G01*
%ADD10C,1.905000*%
%ADD11P,2.749271X8X22.500000*%
%ADD12P,2.089446X8X202.500000*%
%ADD13C,0.604000*%
%ADD14C,0.900000*%

G36*
X261948Y3814D02*
X261948Y3814D01*
X261967Y3812D01*
X262069Y3834D01*
X262171Y3850D01*
X262188Y3860D01*
X262208Y3864D01*
X262297Y3917D01*
X262388Y3966D01*
X262402Y3980D01*
X262419Y3990D01*
X262486Y4069D01*
X262558Y4144D01*
X262566Y4162D01*
X262579Y4177D01*
X262618Y4273D01*
X262661Y4367D01*
X262663Y4387D01*
X262671Y4405D01*
X262689Y4572D01*
X262689Y227078D01*
X262686Y227098D01*
X262688Y227117D01*
X262666Y227219D01*
X262650Y227321D01*
X262640Y227338D01*
X262636Y227358D01*
X262583Y227447D01*
X262534Y227538D01*
X262520Y227552D01*
X262510Y227569D01*
X262431Y227636D01*
X262356Y227708D01*
X262338Y227716D01*
X262323Y227729D01*
X262227Y227768D01*
X262133Y227811D01*
X262113Y227813D01*
X262095Y227821D01*
X261928Y227839D01*
X255015Y227839D01*
X255015Y228600D01*
X255007Y228658D01*
X255009Y228716D01*
X254987Y228798D01*
X254975Y228882D01*
X254952Y228935D01*
X254937Y228991D01*
X254894Y229064D01*
X254859Y229141D01*
X254821Y229186D01*
X254792Y229236D01*
X254730Y229294D01*
X254676Y229358D01*
X254627Y229390D01*
X254584Y229430D01*
X254509Y229469D01*
X254439Y229516D01*
X254383Y229533D01*
X254331Y229560D01*
X254263Y229571D01*
X254168Y229601D01*
X254068Y229604D01*
X254000Y229615D01*
X192405Y229615D01*
X192347Y229607D01*
X192289Y229609D01*
X192207Y229587D01*
X192124Y229575D01*
X192070Y229552D01*
X192014Y229537D01*
X191941Y229494D01*
X191864Y229459D01*
X191819Y229421D01*
X191769Y229392D01*
X191711Y229330D01*
X191647Y229276D01*
X191615Y229227D01*
X191575Y229184D01*
X191536Y229109D01*
X191490Y229039D01*
X191472Y228983D01*
X191445Y228931D01*
X191434Y228863D01*
X191404Y228768D01*
X191401Y228668D01*
X191390Y228600D01*
X191390Y227839D01*
X176910Y227839D01*
X176910Y228600D01*
X176902Y228658D01*
X176904Y228716D01*
X176882Y228798D01*
X176870Y228882D01*
X176847Y228935D01*
X176832Y228991D01*
X176789Y229064D01*
X176754Y229141D01*
X176716Y229186D01*
X176687Y229236D01*
X176625Y229294D01*
X176571Y229358D01*
X176522Y229390D01*
X176479Y229430D01*
X176404Y229469D01*
X176334Y229516D01*
X176278Y229533D01*
X176226Y229560D01*
X176158Y229571D01*
X176063Y229601D01*
X175963Y229604D01*
X175895Y229615D01*
X114300Y229615D01*
X114242Y229607D01*
X114184Y229609D01*
X114102Y229587D01*
X114019Y229575D01*
X113965Y229552D01*
X113909Y229537D01*
X113836Y229494D01*
X113759Y229459D01*
X113714Y229421D01*
X113664Y229392D01*
X113606Y229330D01*
X113542Y229276D01*
X113510Y229227D01*
X113470Y229184D01*
X113431Y229109D01*
X113385Y229039D01*
X113367Y228983D01*
X113340Y228931D01*
X113329Y228863D01*
X113299Y228768D01*
X113296Y228668D01*
X113285Y228600D01*
X113285Y227839D01*
X4572Y227839D01*
X4552Y227836D01*
X4533Y227838D01*
X4431Y227816D01*
X4329Y227800D01*
X4312Y227790D01*
X4292Y227786D01*
X4203Y227733D01*
X4112Y227684D01*
X4098Y227670D01*
X4081Y227660D01*
X4014Y227581D01*
X3942Y227506D01*
X3934Y227488D01*
X3921Y227473D01*
X3882Y227377D01*
X3839Y227283D01*
X3837Y227263D01*
X3829Y227245D01*
X3811Y227078D01*
X3811Y4572D01*
X3814Y4552D01*
X3812Y4533D01*
X3834Y4431D01*
X3850Y4329D01*
X3860Y4312D01*
X3864Y4292D01*
X3917Y4203D01*
X3966Y4112D01*
X3980Y4098D01*
X3990Y4081D01*
X4069Y4014D01*
X4144Y3942D01*
X4162Y3934D01*
X4177Y3921D01*
X4273Y3882D01*
X4367Y3839D01*
X4387Y3837D01*
X4405Y3829D01*
X4572Y3811D01*
X261928Y3811D01*
X261948Y3814D01*
G37*
%LPC*%
G36*
X65220Y166623D02*
X65220Y166623D01*
X58673Y173170D01*
X58673Y182430D01*
X65220Y188977D01*
X74480Y188977D01*
X81027Y182430D01*
X81027Y173170D01*
X74480Y166623D01*
X65220Y166623D01*
G37*
%LPD*%
%LPC*%
G36*
X181952Y65150D02*
X181952Y65150D01*
X177891Y66833D01*
X174783Y69941D01*
X173100Y74002D01*
X173100Y78398D01*
X174783Y82459D01*
X177891Y85567D01*
X181952Y87250D01*
X186348Y87250D01*
X190409Y85567D01*
X193517Y82459D01*
X195200Y78398D01*
X195200Y74002D01*
X193517Y69941D01*
X190409Y66833D01*
X186348Y65150D01*
X181952Y65150D01*
G37*
%LPD*%
%LPC*%
G36*
X45973Y179323D02*
X45973Y179323D01*
X45973Y189993D01*
X49500Y189993D01*
X56643Y182850D01*
X56643Y179323D01*
X45973Y179323D01*
G37*
%LPD*%
%LPC*%
G36*
X32257Y179323D02*
X32257Y179323D01*
X32257Y182850D01*
X39400Y189993D01*
X42927Y189993D01*
X42927Y179323D01*
X32257Y179323D01*
G37*
%LPD*%
%LPC*%
G36*
X45973Y165607D02*
X45973Y165607D01*
X45973Y176277D01*
X56643Y176277D01*
X56643Y172750D01*
X49500Y165607D01*
X45973Y165607D01*
G37*
%LPD*%
%LPC*%
G36*
X39400Y165607D02*
X39400Y165607D01*
X32257Y172750D01*
X32257Y176277D01*
X42927Y176277D01*
X42927Y165607D01*
X39400Y165607D01*
G37*
%LPD*%
%LPC*%
G36*
X44449Y177799D02*
X44449Y177799D01*
X44449Y177801D01*
X44451Y177801D01*
X44451Y177799D01*
X44449Y177799D01*
G37*
%LPD*%
D10*
X184150Y76200D03*
D11*
X154150Y106200D03*
X214150Y106200D03*
X214150Y46200D03*
X154150Y46200D03*
D12*
X44450Y177800D03*
X69850Y177800D03*
D13*
X168275Y215900D03*
X168275Y196850D03*
X168275Y177800D03*
X200025Y196850D03*
X200025Y215900D03*
X200025Y177800D03*
X120650Y177800D03*
X120650Y196850D03*
X120650Y215900D03*
X247650Y177800D03*
X247650Y196850D03*
X247650Y215900D03*
D14*
X12700Y12700D03*
X19050Y107950D03*
X19050Y95250D03*
X31750Y38100D03*
X19050Y38100D03*
X25400Y146050D03*
X25400Y133350D03*
X69850Y107950D03*
X69850Y95250D03*
X196850Y158750D03*
X196850Y120650D03*
X133350Y152400D03*
X133350Y120650D03*
X107950Y133350D03*
X107950Y101600D03*
X133350Y88900D03*
X171450Y88900D03*
X171450Y120650D03*
X196850Y88900D03*
X12700Y222250D03*
X254000Y12700D03*
X254000Y63500D03*
X254000Y114300D03*
X69850Y222250D03*
X12700Y171450D03*
X88900Y63500D03*
X88900Y50800D03*
X12700Y76200D03*
X12700Y50800D03*
X12700Y63500D03*
X88900Y76200D03*
X31750Y114300D03*
X81280Y114300D03*
X44450Y158750D03*
X25400Y177800D03*
X44450Y196850D03*
X165100Y76200D03*
X139700Y63500D03*
M02*
