M48
;GenerationSoftware,Autodesk,EAGLE,9.2.2*%
;CreationDate,2019-02-20T21:30:15Z*%
FMAT,2
ICI,OFF
METRIC,TZ,000.000
T6C0.350
T5C0.600
T4C1.000
T3C1.270
T2C1.321
%
G90
M71
T2
X15415Y4620
X21415Y4620
X21415Y10620
X15415Y10620
T3
X18415Y7620
T4
X6985Y17780
X4445Y17780
T5
X6985Y22225
X1905Y10795
X1270Y17145
X8890Y6350
X8890Y5080
X1270Y7620
X1270Y5080
X1270Y6350
X8890Y7620
X3175Y11430
X8128Y11430
X4445Y15875
X2540Y17780
X4445Y19685
X16510Y7620
X13970Y6350
X25400Y6350
X1270Y1270
X1905Y9525
X3175Y3810
X1905Y3810
X2540Y14605
X2540Y13335
X6985Y10795
X6985Y9525
X19685Y15875
X19685Y12065
X13335Y12065
X13335Y15240
X25400Y11430
X25400Y1270
X1270Y22225
X19685Y8890
X17145Y12065
X17145Y8890
X13335Y8890
X10795Y10160
X10795Y13335
T6
X24765Y21590
X24765Y19685
X24765Y17780
X12065Y21590
X12065Y19685
X12065Y17780
X20003Y17780
X20003Y21590
X20003Y19685
X16828Y17780
X16828Y19685
X16828Y21590
M30