G04 EAGLE Gerber RS-274X export*
G75*
%MOMM*%
%FSLAX34Y34*%
%LPD*%
%INBottom Solder Mask*%
%IPPOS*%
%AMOC8*
5,1,8,0,0,1.08239X$1,22.5*%
G01*
%ADD10C,2.032000*%
%ADD11P,2.886734X8X22.500000*%
%ADD12P,2.226909X8X202.500000*%
%ADD13C,0.731000*%

G36*
X175953Y164093D02*
X175953Y164093D01*
X176011Y164091D01*
X176093Y164113D01*
X176177Y164125D01*
X176230Y164149D01*
X176286Y164163D01*
X176359Y164206D01*
X176436Y164241D01*
X176481Y164279D01*
X176531Y164309D01*
X176589Y164370D01*
X176653Y164425D01*
X176685Y164473D01*
X176725Y164516D01*
X176764Y164591D01*
X176811Y164661D01*
X176828Y164717D01*
X176855Y164769D01*
X176866Y164837D01*
X176896Y164932D01*
X176899Y165032D01*
X176910Y165100D01*
X176910Y228600D01*
X176902Y228658D01*
X176904Y228716D01*
X176882Y228798D01*
X176870Y228882D01*
X176847Y228935D01*
X176832Y228991D01*
X176789Y229064D01*
X176754Y229141D01*
X176716Y229186D01*
X176687Y229236D01*
X176625Y229294D01*
X176571Y229358D01*
X176522Y229390D01*
X176479Y229430D01*
X176404Y229469D01*
X176334Y229516D01*
X176278Y229533D01*
X176226Y229560D01*
X176158Y229571D01*
X176063Y229601D01*
X175963Y229604D01*
X175895Y229615D01*
X114300Y229615D01*
X114242Y229607D01*
X114184Y229609D01*
X114102Y229587D01*
X114019Y229575D01*
X113965Y229552D01*
X113909Y229537D01*
X113836Y229494D01*
X113759Y229459D01*
X113714Y229421D01*
X113664Y229392D01*
X113606Y229330D01*
X113542Y229276D01*
X113510Y229227D01*
X113470Y229184D01*
X113431Y229109D01*
X113385Y229039D01*
X113367Y228983D01*
X113340Y228931D01*
X113329Y228863D01*
X113299Y228768D01*
X113296Y228668D01*
X113285Y228600D01*
X113285Y165100D01*
X113293Y165042D01*
X113291Y164984D01*
X113313Y164902D01*
X113325Y164819D01*
X113349Y164765D01*
X113363Y164709D01*
X113406Y164636D01*
X113441Y164559D01*
X113479Y164514D01*
X113509Y164464D01*
X113570Y164406D01*
X113625Y164342D01*
X113673Y164310D01*
X113716Y164270D01*
X113791Y164231D01*
X113861Y164185D01*
X113917Y164167D01*
X113969Y164140D01*
X114037Y164129D01*
X114132Y164099D01*
X114232Y164096D01*
X114300Y164085D01*
X175895Y164085D01*
X175953Y164093D01*
G37*
G36*
X254058Y164093D02*
X254058Y164093D01*
X254116Y164091D01*
X254198Y164113D01*
X254282Y164125D01*
X254335Y164149D01*
X254391Y164163D01*
X254464Y164206D01*
X254541Y164241D01*
X254586Y164279D01*
X254636Y164309D01*
X254694Y164370D01*
X254758Y164425D01*
X254790Y164473D01*
X254830Y164516D01*
X254869Y164591D01*
X254916Y164661D01*
X254933Y164717D01*
X254960Y164769D01*
X254971Y164837D01*
X255001Y164932D01*
X255004Y165032D01*
X255015Y165100D01*
X255015Y228600D01*
X255007Y228658D01*
X255009Y228716D01*
X254987Y228798D01*
X254975Y228882D01*
X254952Y228935D01*
X254937Y228991D01*
X254894Y229064D01*
X254859Y229141D01*
X254821Y229186D01*
X254792Y229236D01*
X254730Y229294D01*
X254676Y229358D01*
X254627Y229390D01*
X254584Y229430D01*
X254509Y229469D01*
X254439Y229516D01*
X254383Y229533D01*
X254331Y229560D01*
X254263Y229571D01*
X254168Y229601D01*
X254068Y229604D01*
X254000Y229615D01*
X192405Y229615D01*
X192347Y229607D01*
X192289Y229609D01*
X192207Y229587D01*
X192124Y229575D01*
X192070Y229552D01*
X192014Y229537D01*
X191941Y229494D01*
X191864Y229459D01*
X191819Y229421D01*
X191769Y229392D01*
X191711Y229330D01*
X191647Y229276D01*
X191615Y229227D01*
X191575Y229184D01*
X191536Y229109D01*
X191490Y229039D01*
X191472Y228983D01*
X191445Y228931D01*
X191434Y228863D01*
X191404Y228768D01*
X191401Y228668D01*
X191390Y228600D01*
X191390Y165100D01*
X191398Y165042D01*
X191396Y164984D01*
X191418Y164902D01*
X191430Y164819D01*
X191454Y164765D01*
X191468Y164709D01*
X191511Y164636D01*
X191546Y164559D01*
X191584Y164514D01*
X191614Y164464D01*
X191675Y164406D01*
X191730Y164342D01*
X191778Y164310D01*
X191821Y164270D01*
X191896Y164231D01*
X191966Y164185D01*
X192022Y164167D01*
X192074Y164140D01*
X192142Y164129D01*
X192237Y164099D01*
X192337Y164096D01*
X192405Y164085D01*
X254000Y164085D01*
X254058Y164093D01*
G37*
D10*
X184150Y76200D03*
D11*
X154150Y106200D03*
X214150Y106200D03*
X214150Y46200D03*
X154150Y46200D03*
D12*
X44450Y177800D03*
X69850Y177800D03*
D13*
X120650Y177800D03*
X120650Y196850D03*
X120650Y215900D03*
X247650Y177800D03*
X247650Y196850D03*
X247650Y215900D03*
M02*
